<?xml version="1.0" encoding="utf-8"?>
<!-- Generator: Adobe Illustrator 22.0.0, SVG Export Plug-In . SVG Version: 6.00 Build 0)  -->
<svg version="1.1" id="Layer_1" xmlns="http://www.w3.org/2000/svg" xmlns:xlink="http://www.w3.org/1999/xlink" x="0px" y="0px"
	 width="1000px" height="1000px" viewBox="0 0 1000 1000" style="enable-background:new 0 0 1000 1000;" xml:space="preserve">
<style type="text/css">
	.st0{fill:#EA1C00;}
	.st1{fill:#FFFFFF;}
	.st2{fill:#D32144;}
	.st3{fill:#E92A40;}
	.st4{fill:#6AC259;}
	.st5{fill:#288AD6;}
</style>
<g>
	<g>
		<g>
			<path d="M82.7,1.5c-11,0-20,9-20,20s9,20,20,20s20-9,20-20C102.7,10.4,93.7,1.5,82.7,1.5z M82.7,31v-0.1h-0.1h-8.5
				c0-6.2,5.5-6.2,6.7-7.8l0.1-0.7c-1.7-0.9-2.9-3-2.9-5.4c0-3.2,2.1-5.8,4.7-5.8s4.7,2.6,4.7,5.8c0,2.4-1.2,4.5-2.9,5.4l0.2,0.8
				c1.3,1.6,6.6,1.7,6.6,7.9L82.7,31L82.7,31z"/>
		</g>
	</g>
</g>
<g>
	<g>
		<path d="M162.5,1.7C162,1.3,161.4,1,160.8,1l-14.9,0.4c-0.6,0-1.2,0.3-1.6,0.7l-20.4,20.4c-0.9,0.9-0.9,2.4,0,3.3l14.4,14.4
			c0.9,0.9,2.4,0.9,3.3,0L162,19.8c0.4-0.4,0.7-1,0.7-1.6l0.4-14.9C163.2,2.8,162.9,2.2,162.5,1.7z M157.6,19.2l-17.3,17.3
			c-0.2,0.2-0.6,0.2-0.9,0l-11.6-11.6c-0.2-0.2-0.2-0.6,0-0.9L145,6.6c0.2-0.2,0.6-0.2,0.9,0l11.6,11.6
			C157.8,18.5,157.8,18.9,157.6,19.2z M159.7,7.6c-0.9,0.9-2.3,0.9-3.2,0s-0.9-2.3,0-3.2s2.3-0.9,3.2,0
			C160.6,5.3,160.6,6.8,159.7,7.6z"/>
		<path d="M137,26.2c-0.8,0.3-1.1,0.5-1.4,0.2c-0.2-0.2-0.2-0.6,0.2-1c0.2-0.2,0.4-0.3,0.6-0.5c0.3-0.2,0.4-0.5,0.2-0.8l0,0
			c-0.1-0.1-0.2-0.2-0.3-0.3c-0.1,0-0.3,0-0.4,0.1c-0.2,0.1-0.5,0.3-0.8,0.6c-1,1-1.1,2.2-0.3,2.9c0.6,0.6,1.5,0.5,2.4,0.1
			c0.7-0.3,1-0.4,1.3-0.1s0.2,0.7-0.2,1.1c-0.2,0.2-0.5,0.4-0.8,0.6c-0.1,0.1-0.2,0.2-0.3,0.4c0,0.2,0,0.3,0.1,0.4l0,0
			c0.2,0.3,0.5,0.4,0.8,0.2c0.3-0.2,0.7-0.4,1-0.7c1.2-1.2,1.1-2.3,0.4-3C138.8,25.7,138,25.7,137,26.2z"/>
		<path d="M144,22.9l-4.4-2.3c-0.2-0.1-0.5-0.1-0.7,0.1l-0.7,0.7c-0.2,0.2-0.2,0.4-0.1,0.7l2.3,4.4c0.1,0.2,0.3,0.3,0.5,0.3
			s0.4,0,0.6-0.2c0.2-0.2,0.3-0.5,0.1-0.8l-0.5-1l1.2-1.2l1,0.5c0.3,0.1,0.6,0.1,0.8-0.1s0.2-0.4,0.2-0.6
			C144.4,23.2,144.2,23,144,22.9z M140.6,24c0,0-1.1-1.9-1.3-2.2l0,0c0.3,0.2,2.2,1.2,2.2,1.2L140.6,24z"/>
		<path d="M147.3,19.6c-0.2,0-0.3,0.1-0.4,0.2l-1.3,1.3l-3-3c-0.1-0.1-0.3-0.2-0.5-0.2s-0.4,0.1-0.5,0.2c-0.3,0.3-0.3,0.7,0,1
			l3.4,3.4c0.2,0.2,0.6,0.2,0.8,0l1.9-1.9c0.2-0.2,0.2-0.6,0-0.8C147.6,19.6,147.4,19.6,147.3,19.6z"/>
		<path d="M150.2,16.5l-1.4,1.4l-1-1l1.2-1.2c0.2-0.2,0.2-0.6,0-0.8s-0.6-0.2-0.8,0L147,16l-0.9-0.9l1.3-1.3c0.2-0.2,0.2-0.6,0-0.8
			c-0.1-0.1-0.2-0.2-0.4-0.2c-0.1,0-0.3,0.1-0.4,0.2l-1.8,1.8c-0.1,0.1-0.2,0.2-0.2,0.4c0,0.1,0.1,0.3,0.2,0.4l3.5,3.5
			c0.2,0.2,0.6,0.2,0.8,0l1.9-1.9c0.2-0.2,0.2-0.6,0-0.8C150.7,16.3,150.4,16.3,150.2,16.5z"/>
	</g>
</g>
<g>
	<path d="M200.5,27.7h24.1c0.6,0,1.1-0.4,1.3-1L231.2,8c0.1-0.4,0-0.8-0.2-1.2c-0.3-0.3-0.6-0.5-1.1-0.5h-32.5l-1-4.3
		c-0.1-0.6-0.7-1-1.3-1H187c-0.7,0-1.3,0.5-1.4,1.2c-0.1,0.8,0.5,1.5,1.3,1.5h7l4.8,21.7c-1.5,0.6-2.5,2.2-2.4,3.9
		c0.1,2.1,1.9,3.8,4.1,3.8h24c0.7,0,1.3-0.5,1.4-1.2c0.1-0.8-0.5-1.5-1.3-1.5h-24.1c-0.7,0-1.3-0.6-1.3-1.3
		C199.2,28.3,199.8,27.7,200.5,27.7z"/>
	<path d="M199.2,37c0,2.2,1.8,4,4,4s4-1.8,4-4s-1.8-4-4-4S199.2,34.8,199.2,37z"/>
	<path d="M217.9,37c0,2.2,1.8,4,4,4s4-1.8,4-4s-1.8-4-4-4S217.9,34.8,217.9,37z"/>
</g>
<g>
	<g>
		<g>
			<path d="M26.6,35.7c-0.3,0.4-0.8,0.8-1.3,0.9l-2.5,0.7c-0.2,0.1-0.4,0.1-0.6,0.1c-0.5,0-0.9-0.1-1.3-0.4c-0.6-0.4-0.9-1-1-1.7
				l-0.2-2.7c-0.1-0.5,0.1-1.1,0.4-1.5l0.1-0.1h-8.6c-0.7,0-1.3-0.6-1.3-1.4c0-0.7,0.6-1.4,1.3-1.4h10.8l2.5-3.6H10.8
				c-0.7,0-1.3-0.6-1.3-1.4s0.6-1.4,1.3-1.4h15.5l5.8-8.4V8.3c0-1-0.8-1.8-1.8-1.8h-4.5v3.4c0,1.6-1.3,2.9-2.9,2.9h-8.6
				c-1.6,0-2.9-1.3-2.9-2.9V6.5H6.9c-1,0-1.8,0.8-1.8,1.8V39c0,1,0.8,1.8,1.8,1.8h23.5c1,0,1.8-0.8,1.8-1.8V27.6L26.6,35.7z
				 M11.4,15.6h15.2c0.7,0,1.3,0.6,1.3,1.4c0,0.7-0.6,1.4-1.3,1.4H11.4c-0.7,0-1.3-0.6-1.3-1.4C10.1,16.2,10.7,15.6,11.4,15.6z"/>
			<path d="M14.4,11.1h8.4c0.7,0,1.2-0.5,1.2-1.2V5c0-0.7-0.5-1.2-1.2-1.2h-1.2c0-1.6-1.3-3-3-3c-1.6,0-3,1.3-3,3h-1.2
				c-0.7,0-1.2,0.5-1.2,1.2v4.8C13.2,10.5,13.7,11.1,14.4,11.1z M19,1.6c0.8,0,1.4,0.6,1.4,1.4h-2.7C17.6,2.2,18.3,1.6,19,1.6z"/>
			<path d="M43.5,8.3c0-0.2-0.2-0.4-0.4-0.5L41,6.2C40.9,6.1,40.7,6,40.5,6c-0.3,0-0.5,0.1-0.7,0.4L24.3,28.7l3.6,2.5L43.4,9
				C43.5,8.8,43.6,8.5,43.5,8.3z"/>
			<path d="M21.8,32.4L22,35c0,0.2,0.1,0.3,0.2,0.4c0.1,0.1,0.2,0.1,0.3,0.1h0.1l2.5-0.7c0.1,0,0.2-0.1,0.3-0.2l1-1.4l-3.6-2.5
				l-1,1.4C21.9,32.1,21.8,32.2,21.8,32.4z"/>
		</g>
	</g>
</g>
<g>
	<g>
		<g>
			<g>
				<path class="st0" d="M282.6,8.5c8.2,0.1,13.3-0.4,14,8.6h10c0-14.1-12.3-16-24.3-16S258,3,258,17.1h9.9
					C268.8,7.9,274.5,8.4,282.6,8.5z"/>
				<path class="st0" d="M263,21.6c2.4,0,4.5,0.1,4.9-2.2c0.1-0.3,0.1-0.7,0.1-1.1h-0.1H258C258,21.8,260.3,21.6,263,21.6z"/>
				<path class="st0" d="M296.7,18.3L296.7,18.3c-0.1,0.4-0.1,0.8,0,1.1c0.5,2.2,2.5,2.1,4.9,2.1c2.8,0,5,0.2,5-3.2H296.7
					L296.7,18.3z"/>
				<path class="st0" d="M291.8,15.8v-1.4c0-0.6-0.7-0.7-1.6-0.7h-1.5c-0.9,0-1.6,0-1.6,0.7v1.2v0.9h-10.4v-0.9v-1.2
					c0-0.6-0.7-0.7-1.6-0.7h-1.5c-0.9,0-1.6,0-1.6,0.7v1.4V17c-2.4,2.5-10.1,12.9-10.4,14.2v8.5c0,0.8,0.6,1.4,1.4,1.4h37.8
					c0.8,0,1.4-0.6,1.4-1.4v-8.5c-0.3-1.2-8-11.7-10.4-14.2L291.8,15.8L291.8,15.8z M276.2,32.4c-0.8,0-1.4-0.6-1.4-1.4
					s0.6-1.4,1.4-1.4s1.4,0.6,1.4,1.4S276.9,32.4,276.2,32.4z M276.2,27.7c-0.8,0-1.4-0.6-1.4-1.4s0.6-1.4,1.4-1.4s1.4,0.6,1.4,1.4
					C277.5,27.1,276.9,27.7,276.2,27.7z M276.2,23c-0.8,0-1.4-0.6-1.4-1.4s0.6-1.4,1.4-1.4s1.4,0.6,1.4,1.4
					C277.5,22.3,276.9,23,276.2,23z M281.8,32.4c-0.8,0-1.4-0.6-1.4-1.4s0.6-1.4,1.4-1.4s1.4,0.6,1.4,1.4S282.6,32.4,281.8,32.4z
					 M281.8,27.7c-0.8,0-1.4-0.6-1.4-1.4s0.6-1.4,1.4-1.4s1.4,0.6,1.4,1.4C283.2,27.1,282.6,27.7,281.8,27.7z M281.8,23
					c-0.8,0-1.4-0.6-1.4-1.4s0.6-1.4,1.4-1.4s1.4,0.6,1.4,1.4C283.2,22.3,282.6,23,281.8,23z M287.5,32.4c-0.8,0-1.4-0.6-1.4-1.4
					s0.6-1.4,1.4-1.4s1.4,0.6,1.4,1.4S288.3,32.4,287.5,32.4z M287.5,27.7c-0.8,0-1.4-0.6-1.4-1.4s0.6-1.4,1.4-1.4s1.4,0.6,1.4,1.4
					S288.3,27.7,287.5,27.7z M287.5,23c-0.8,0-1.4-0.6-1.4-1.4s0.6-1.4,1.4-1.4s1.4,0.6,1.4,1.4C288.9,22.3,288.3,23,287.5,23z"/>
			</g>
		</g>
	</g>
</g>
<g>
	<g>
		<g id="XMLID_1_">
			<path id="XMLID_2_" class="st0" d="M394.2,5.1c-2.1-2.4-5.8-3.4-13.1-3.4h-26.3c-7.4,0-11.3,1.1-13.3,3.7c-2,2.5-2,6.3-2,11.4
				v9.8c0,10,2.4,15.1,15.3,15.1h26.3c6.3,0,9.7-0.9,12-3c2.3-2.2,3.3-5.8,3.3-12v-9.8C396.4,11.3,396.3,7.5,394.2,5.1z M376.1,23
				l-11.9,6.2c-0.3,0.1-0.6,0.2-0.8,0.2c-0.3,0-0.7-0.1-0.9-0.3c-0.5-0.3-0.9-0.9-0.9-1.6V15.2c0-0.6,0.3-1.2,0.9-1.6
				c0.5-0.3,1.2-0.4,1.8-0.1l11.9,6.2c0.6,0.3,1,0.9,1,1.6C377.1,22,376.7,22.7,376.1,23z"/>
		</g>
	</g>
</g>
<g>
	<g>
		<g>
			<g id="Navigation_1_">
				<g>
					<path class="st1" d="M4.4,74.7h42c1.5,0,2.8-1.3,2.8-2.8s-1.2-2.8-2.8-2.8h-42c-1.5,0-2.8,1.3-2.8,2.8
						C1.7,73.4,2.9,74.7,4.4,74.7z M46.4,86.3h-42c-1.5,0-2.8,1.3-2.8,2.8c0,1.6,1.2,2.8,2.8,2.8h42c1.5,0,2.8-1.3,2.8-2.8
						C49.1,87.5,47.9,86.3,46.4,86.3z M46.4,103.5h-42c-1.5,0-2.8,1.3-2.8,2.8c0,1.6,1.2,2.8,2.8,2.8h42c1.5,0,2.8-1.3,2.8-2.8
						C49.1,104.7,47.9,103.5,46.4,103.5z"/>
				</g>
			</g>
		</g>
	</g>
</g>
<g>
	<g>
		<path d="M458.8,13.4c0.7-0.5,1.4-1.1,2-1.7c1.3-1.3,2.2-2.9,2.5-4.6c0.3-1.8-0.1-3.4-1.3-4.5c-0.9-0.9-2.1-1.3-3.5-1.3
			c-2,0-4,0.9-5.7,2.6c-2.6,2.6-4.2,6.3-5,8.8c-0.6-2.6-1.8-6.1-4.2-8.5c-1.3-1.3-2.9-1.9-4.4-1.9c-1.3,0-2.4,0.4-3.3,1.3
			c-2,2-1.7,5.4,0.6,7.8c0.8,0.8,1.8,1.5,2.8,2.1h-8.6v10.1h2.5v17.7h30.4V23.5h2.5V13.4H458.8L458.8,13.4z M454.9,5.8
			c1.1-1.1,2.5-1.7,3.7-1.7c0.4,0,1,0.1,1.4,0.5c1,1,0.5,3.4-1.2,5.1s-4.1,2.9-6.1,3.7h-2C451.4,11.1,452.8,8,454.9,5.8z M437.5,7.1
			c0-0.4,0-1,0.5-1.5c0.4-0.4,0.9-0.5,1.3-0.5l0,0c0.8,0,1.7,0.4,2.4,1.1c1.3,1.3,2.4,3.5,3.2,6.2c0,0.1,0,0.1,0.1,0.2
			c-0.1,0-0.1,0-0.2-0.1c-2.7-0.7-4.8-1.8-6.2-3.2C438,8.7,437.6,7.9,437.5,7.1z M446,38.7h-10.1V22.2H446V38.7z M446,21h-12.6v-5.1
			H446V21z M461.2,38.7h-10.1V22.2h10.1V38.7z M463.7,21h-12.6v-5.1h12.6V21z"/>
	</g>
</g>
<g>
	<g>
		<g>
			<path d="M509.6,12.1v12.6h2.7V10.2l8.4-5.7l8.2,5.7V28c0.7-0.6,1.4-1.2,2.1-1.8c0.2-0.2,0.5-0.4,0.7-0.6V11.9l1.6,1.1l1.5-2.3
				l-13.3-9.1l-0.8-0.5L520,1.7l-6.1,4.2V3.8h-3.4v4.5l-3.6,2.5l1.5,2.3L509.6,12.1z"/>
			<path d="M521.3,24.4v-1.6c1.6-0.4,2.6-1.5,2.6-3s-0.8-2.4-2.7-3.1c-1.3-0.5-1.7-0.8-1.7-1.2c0-0.5,0.4-0.8,1.2-0.8
				c0.9,0,1.5,0.3,1.9,0.5l0.4,0.2l0.6-2l-0.2-0.1c-0.6-0.3-1.2-0.5-2-0.5v-1.4h-1.9V13c-1.5,0.4-2.5,1.4-2.5,2.9
				c0,1.8,1.4,2.5,2.9,3c1.3,0.5,1.5,0.9,1.5,1.3c0,0.6-0.5,0.9-1.3,0.9c-0.7,0-1.6-0.2-2.2-0.6l-0.3-0.2l-0.6,2l0.2,0.1
				c0.6,0.4,1.5,0.6,2.4,0.7v1.5L521.3,24.4L521.3,24.4z"/>
			<path d="M539.6,30.7c-0.1-0.9-0.7-1.6-1.7-2.3c-0.7-0.5-2-1.2-3.4-1.2c-1.2,0-3,0.4-4.5,2.6c-1.4,1.7-3.1,2.4-4.5,2.7
				c0.1-0.3,0.2-0.7,0.2-1.2c0-3-2.3-5.2-5.6-5.2h-11.6c-1.1,0-2.2,0.3-3.1,0.9v-1.5H500v15.7h5.4v-1.7c0.2,0.1,0.5,0.3,0.5,0.3
				c0.9,0.5,2.4,1.1,3.9,1.1h10.7c9.2,0,15.5-5.2,17.8-7.7C539,32.5,539.7,31.7,539.6,30.7z M503.6,28.9h-1.9V27h1.9V28.9
				L503.6,28.9z M536.9,32c-2.1,2.4-8,7.1-16.4,7.1h-10.7c-1.8,0-3.7-1.4-3.8-1.4c-0.2-0.1-0.4-0.2-0.6-0.2l0,0v-8.4
				c0.2,0,0.4-0.1,0.6-0.2l0.2-0.2c0.6-0.5,1.5-0.8,2.3-0.8h11.6c1.9,0,3.7,1.1,3.7,3.3c0,1.3-0.9,1.3-0.9,1.4h-8.5
				c-0.5,0-0.9,0.4-0.9,0.9s0.4,0.9,0.9,0.9h9h0.5c1.4,0,5-0.3,7.5-3.6l0,0c0.8-1.2,1.9-1.8,3-1.8c1,0,1.9,0.5,2.2,0.7
				c0.9,0.8,1,1,1,1C537.7,31,537.1,31.7,536.9,32z"/>
		</g>
	</g>
</g>
<g>
	<g>
		<g>
			<path d="M582.5,8l0.8-0.8c0.5-0.5,0.4-1.4-0.2-1.8l-6.3-3.8c-1.6-1-3.7-0.7-5.1,0.6c-1.4,1.4-1.6,3.5-0.6,5.1l3.8,6.3
				c0.4,0.7,1.3,0.8,1.8,0.2l0.8-0.8l6.3,6.3l5-5L582.5,8z"/>
		</g>
	</g>
	<g>
		<g>
			<path d="M609.7,5.6c-0.3-0.7-1.3-0.9-1.9-0.3l-3,3c-0.4,0.4-1.2,0.4-1.7,0c-0.5-0.5-0.5-1.2,0-1.7l3-3c0.6-0.6,0.4-1.5-0.3-1.9
				c-3.1-1.5-6.9-0.9-9.3,1.6c-2.3,2.3-3,5.6-1.9,8.6L581.5,25c-3-1.1-6.3-0.3-8.6,1.9c-2.5,2.5-3.1,6.2-1.6,9.3
				c0.3,0.7,1.3,0.9,1.9,0.3l3-3c0.5-0.5,1.2-0.5,1.7,0s0.5,1.2,0,1.7l-3,3c-0.6,0.6-0.4,1.5,0.3,1.9c1.1,0.5,2.3,0.8,3.5,0.8
				c2.1,0,4.2-0.8,5.8-2.4c2.3-2.3,3-5.6,1.9-8.6l13.1-13.1c3,1.1,6.3,0.3,8.6-1.9C610.6,12.5,611.2,8.8,609.7,5.6z"/>
		</g>
	</g>
	<g>
		<g>
			<path d="M608.8,31.1c-4-4-6.2-5.5-10.8-9.2l-6.6,6.6c3.3,4.2,5.3,6.9,9,10.6c1.2,1.2,2.8,1.8,4.4,1.8c1.2,0,2.3-0.3,3.3-1
				c1.4-1,2.3-2.6,2.4-4.3C610.6,34,610,32.3,608.8,31.1z M605.4,35.9c-0.5,0.4-1.2,0.4-1.6-0.1l-4.6-4.6c-0.4-0.4-0.5-1.2-0.1-1.6
				c0.5-0.5,1.2-0.5,1.7,0l4.7,4.7C605.9,34.6,605.9,35.4,605.4,35.9z"/>
		</g>
	</g>
</g>
<g>
	<g>
		<g>
			<path d="M714.7,25.3v6.4c0,1.6-1.3,2.9-2.9,2.9h-3.1c-0.6-3.8-3.8-6.7-7.8-6.7s-7.2,2.9-7.8,6.7H667c-0.6-3.8-3.8-6.7-7.8-6.7
				s-7.2,2.9-7.8,6.7h-3.8c-1.6,0-2.9-1.3-2.9-2.9v-6.4H714.7z M664.5,10h-1.6l-0.6,3.1h1.6c1.1,0,1.9-0.7,1.9-1.9
				C665.8,10.4,665.3,10,664.5,10z M706.9,35.7c0,3.3-2.7,6-6,6s-6-2.7-6-6s2.7-6,6-6S706.9,32.4,706.9,35.7z M703.9,35.7
				c0-1.6-1.3-3-3-3c-1.6,0-3,1.3-3,3c0,1.6,1.3,3,3,3C702.6,38.6,703.9,37.3,703.9,35.7z M665.2,35.7c0,3.3-2.7,6-6,6s-6-2.7-6-6
				s2.7-6,6-6S665.2,32.4,665.2,35.7z M662.2,35.7c0-1.6-1.3-3-3-3c-1.6,0-3,1.3-3,3c0,1.6,1.3,3,3,3
				C660.9,38.6,662.2,37.3,662.2,35.7z M714.7,23.7h-69.9V4.5c0-1.6,1.3-2.9,2.9-2.9H691c1.6,0,2.9,1.3,2.9,2.9v2.1h5.7
				c1,0,2,0.4,2.7,1.1l11.3,11.2c0.7,0.7,1.1,1.7,1.1,2.7V23.7z M654.9,12.8l0.5-2.8h3.9l0.3-1.6H654l-1.9,9.9h1.8l0.8-4h3.3
				l0.3-1.6L654.9,12.8L654.9,12.8z M665.4,14.2L665.4,14.2c1.5-0.5,2.3-2,2.3-3.3c0-1-0.5-1.8-1.3-2.2c-0.4-0.2-0.9-0.3-1.4-0.3
				h-3.5l-1.9,9.9h1.8l0.7-3.7h1.8l1.3,3.7h1.9l-1.3-3.7C665.5,14.3,665.4,14.2,665.4,14.2z M676.4,8.4h-5.9l-1.9,9.9h6.2l0.3-1.6
				h-4.4l0.5-2.7h3.3l0.3-1.6h-3.3L672,10h4.1L676.4,8.4z M684.4,8.4h-5.9l-1.9,9.9h6.2l0.3-1.6h-4.4l0.5-2.7h3.3l0.3-1.6h-3.3
				L680,10h4.1L684.4,8.4z M708.9,18.5l-8.8-8.4c-0.1-0.1-0.2-0.1-0.3-0.1h-2.1c-0.2,0-0.4,0.2-0.4,0.4v8.4c0,0.2,0.2,0.4,0.4,0.4
				h10.9C709,19.3,709.2,18.8,708.9,18.5z"/>
		</g>
	</g>
</g>
<g>
	<g>
		<path class="st1" d="M458.8,81.2c0.7-0.5,1.4-1.1,2-1.7c1.3-1.3,2.2-2.9,2.5-4.6c0.3-1.8-0.1-3.4-1.3-4.5
			c-0.9-0.9-2.1-1.3-3.5-1.3c-2,0-4,0.9-5.7,2.6c-1.6,1.6-2.9,3.7-3.8,5.6c-0.5,1-1.8,0.9-2.2-0.1c-0.7-1.8-1.7-3.7-3.2-5.2
			c-1.3-1.3-2.9-1.9-4.4-1.9c-1.3,0-2.4,0.4-3.3,1.3c-2,2-1.7,5.4,0.6,7.8l0,0c0.8,0.8,0.3,2.1-0.8,2.1h-3.8c-0.7,0-1.2,0.5-1.2,1.2
			v7.7c0,0.7,0.5,1.2,1.2,1.2h0.1c0.7,0,1.2,0.5,1.2,1.2v15.3c0,0.7,0.5,1.2,1.2,1.2h28c0.7,0,1.2-0.5,1.2-1.2V92.5
			c0-0.7,0.5-1.2,1.2-1.2h0.1c0.7,0,1.2-0.5,1.2-1.2v-7.7c0-0.7-0.5-1.2-1.2-1.2L458.8,81.2L458.8,81.2z M454.9,73.6
			c1.1-1.1,2.5-1.7,3.7-1.7c0.4,0,1,0.1,1.4,0.5c1,1,0.5,3.4-1.2,5.1c-1.6,1.6-3.9,2.8-5.9,3.6c-0.1,0.1-0.3,0.1-0.5,0.1l0,0
			c-0.9,0-1.4-0.9-1.1-1.7C452.1,77.5,453.3,75.3,454.9,73.6z M437.5,74.9c0-0.4,0-1,0.5-1.5c0.4-0.4,0.9-0.5,1.3-0.5l0,0
			c0.8,0,1.7,0.4,2.4,1.1c1.3,1.3,2.4,3.5,3.2,6.2c0,0.1,0,0.1,0.1,0.2c-0.1,0-0.1,0-0.2-0.1c-2.7-0.7-4.8-1.8-6.2-3.2
			C438,76.5,437.6,75.7,437.5,74.9z M444.8,106.5h-7.7c-0.7,0-1.2-0.5-1.2-1.2V91.2c0-0.7,0.5-1.2,1.2-1.2h7.7
			c0.7,0,1.2,0.5,1.2,1.2v14.1C446,106,445.5,106.5,444.8,106.5z M444.8,88.8h-10.2c-0.7,0-1.2-0.5-1.2-1.2v-2.7
			c0-0.7,0.5-1.2,1.2-1.2h10.2c0.7,0,1.2,0.5,1.2,1.2v2.7C446,88.3,445.5,88.8,444.8,88.8z M460,106.5h-7.7c-0.7,0-1.2-0.5-1.2-1.2
			V91.2c0-0.7,0.5-1.2,1.2-1.2h7.7c0.7,0,1.2,0.5,1.2,1.2v14.1C461.2,106,460.7,106.5,460,106.5z M462.5,88.8h-10.2
			c-0.7,0-1.2-0.5-1.2-1.2v-2.7c0-0.7,0.5-1.2,1.2-1.2h10.2c0.7,0,1.2,0.5,1.2,1.2v2.7C463.7,88.3,463.2,88.8,462.5,88.8z"/>
	</g>
</g>
<g>
	<g>
		<g>
			<path class="st1" d="M510.6,80.1v12.6h2.7V78.2l8.4-5.7l8.2,5.7V96c0.7-0.6,1.4-1.2,2.1-1.8c0.2-0.2,0.5-0.4,0.7-0.6V79.9
				l1.6,1.1l1.5-2.3l-13.3-9.1l-0.8-0.5l-0.7,0.6l-6.1,4.2v-2.1h-3.4v4.5l-3.6,2.5l1.5,2.3L510.6,80.1z"/>
			<path class="st1" d="M522.3,92.4v-1.6c1.6-0.4,2.6-1.5,2.6-3s-0.8-2.4-2.7-3.1c-1.3-0.5-1.7-0.8-1.7-1.2c0-0.5,0.4-0.8,1.2-0.8
				c0.9,0,1.5,0.3,1.9,0.5l0.4,0.2l0.6-2l-0.2-0.1c-0.6-0.3-1.2-0.5-2-0.5v-1.4h-1.9V81c-1.5,0.4-2.5,1.4-2.5,2.9
				c0,1.8,1.4,2.5,2.9,3c1.3,0.5,1.5,0.9,1.5,1.3c0,0.6-0.5,0.9-1.3,0.9c-0.7,0-1.6-0.2-2.2-0.6l-0.3-0.2l-0.6,2l0.2,0.1
				c0.6,0.4,1.5,0.6,2.4,0.7v1.5L522.3,92.4L522.3,92.4z"/>
			<path class="st1" d="M540.6,98.7c-0.1-0.9-0.7-1.6-1.7-2.3c-0.7-0.5-2-1.2-3.4-1.2c-1.2,0-3,0.4-4.5,2.6
				c-1.4,1.7-3.1,2.4-4.5,2.7c0.1-0.3,0.2-0.7,0.2-1.2c0-3-2.3-5.2-5.6-5.2h-11.6c-1.1,0-2.2,0.3-3.1,0.9v-1.5H501v15.7h5.4v-1.7
				c0.2,0.1,0.5,0.3,0.5,0.3c0.9,0.5,2.4,1.1,3.9,1.1h10.7c9.2,0,15.5-5.2,17.8-7.7C540,100.5,540.7,99.7,540.6,98.7z M504.6,96.9
				h-1.9V95h1.9V96.9L504.6,96.9z M537.9,100c-2.1,2.4-8,7.1-16.4,7.1h-10.7c-1.8,0-3.7-1.4-3.8-1.4c-0.2-0.1-0.4-0.2-0.6-0.2l0,0
				v-8.4c0.2,0,0.4-0.1,0.6-0.2l0.2-0.2c0.6-0.5,1.5-0.8,2.3-0.8h11.6c1.9,0,3.7,1.1,3.7,3.3c0,1.3-0.9,1.3-0.9,1.4h-8.5
				c-0.5,0-0.9,0.4-0.9,0.9s0.4,0.9,0.9,0.9h9h0.5c1.4,0,5-0.3,7.5-3.6l0,0c0.8-1.2,1.9-1.8,3-1.8c1,0,1.9,0.5,2.2,0.7
				c0.9,0.8,1,1,1,1C538.7,99,538.1,99.7,537.9,100z"/>
		</g>
	</g>
</g>
<g>
	<g>
		<g>
			<path class="st1" d="M583.4,77.1l0.8-0.8c0.5-0.5,0.4-1.4-0.2-1.8l-6.3-3.8c-1.6-1-3.7-0.7-5.1,0.6c-1.4,1.4-1.6,3.5-0.6,5.1
				l3.8,6.3c0.4,0.7,1.3,0.8,1.8,0.2l0.8-0.8l6.3,6.3l5-5L583.4,77.1z"/>
		</g>
	</g>
	<g>
		<g>
			<path class="st1" d="M610.6,74.7c-0.3-0.7-1.3-0.9-1.9-0.3l-3,3c-0.4,0.4-1.2,0.4-1.7,0c-0.5-0.5-0.5-1.2,0-1.7l3-3
				c0.6-0.6,0.4-1.5-0.3-1.9c-3.1-1.5-6.9-0.9-9.3,1.6c-2.3,2.3-3,5.6-1.9,8.6l-13.1,13.1c-3-1.1-6.3-0.3-8.6,1.9
				c-2.5,2.5-3.1,6.2-1.6,9.3c0.3,0.7,1.3,0.9,1.9,0.3l3-3c0.5-0.5,1.2-0.5,1.7,0s0.5,1.2,0,1.7l-3,3c-0.6,0.6-0.4,1.5,0.3,1.9
				c1.1,0.5,2.3,0.8,3.5,0.8c2.1,0,4.2-0.8,5.8-2.4c2.3-2.3,3-5.6,1.9-8.6l13.1-13.1c3,1.1,6.3,0.3,8.6-1.9
				C611.5,81.6,612.1,77.9,610.6,74.7z"/>
		</g>
	</g>
	<g>
		<g>
			<path class="st1" d="M609.7,100.2c-4-4-6.2-5.5-10.8-9.2l-6.6,6.6c3.3,4.2,5.3,6.9,9,10.6c1.2,1.2,2.8,1.8,4.4,1.8
				c1.2,0,2.3-0.3,3.3-1c1.4-1,2.3-2.6,2.4-4.3C611.5,103.1,610.9,101.4,609.7,100.2z M606.3,105c-0.5,0.4-1.2,0.4-1.6-0.1l-4.6-4.6
				c-0.4-0.4-0.5-1.2-0.1-1.6c0.5-0.5,1.2-0.5,1.7,0l4.7,4.7C606.8,103.7,606.8,104.5,606.3,105z"/>
		</g>
	</g>
</g>
<g>
	<g>
		<g>
			<path class="st1" d="M715.5,93.7v6.4c0,1.6-1.3,2.9-2.9,2.9h-3.1c-0.6-3.8-3.8-6.7-7.8-6.7s-7.2,2.9-7.8,6.7h-26.1
				c-0.6-3.8-3.8-6.7-7.8-6.7s-7.2,2.9-7.8,6.7h-3.8c-1.6,0-2.9-1.3-2.9-2.9v-6.4H715.5z M665.3,78.4h-1.6l-0.6,3.1h1.6
				c1.1,0,1.9-0.7,1.9-1.9C666.6,78.8,666.1,78.4,665.3,78.4z M707.7,104.1c0,3.3-2.7,6-6,6s-6-2.7-6-6s2.7-6,6-6
				S707.7,100.8,707.7,104.1z M704.7,104.1c0-1.6-1.3-3-3-3c-1.6,0-3,1.3-3,3c0,1.6,1.3,3,3,3C703.4,107,704.7,105.7,704.7,104.1z
				 M666,104.1c0,3.3-2.7,6-6,6s-6-2.7-6-6s2.7-6,6-6S666,100.8,666,104.1z M663,104.1c0-1.6-1.3-3-3-3c-1.6,0-3,1.3-3,3
				c0,1.6,1.3,3,3,3C661.7,107,663,105.7,663,104.1z M715.5,92.1h-69.9V72.9c0-1.6,1.3-2.9,2.9-2.9h43.3c1.6,0,2.9,1.3,2.9,2.9V75
				h5.7c1,0,2,0.4,2.7,1.1l11.3,11.2c0.7,0.7,1.1,1.7,1.1,2.7V92.1z M655.7,81.2l0.5-2.8h3.9l0.3-1.6h-5.6l-1.9,9.9h1.8l0.8-4h3.3
				l0.3-1.6L655.7,81.2L655.7,81.2z M666.2,82.6L666.2,82.6c1.5-0.5,2.3-2,2.3-3.3c0-1-0.5-1.8-1.3-2.2c-0.4-0.2-0.9-0.3-1.4-0.3
				h-3.5l-1.9,9.9h1.8l0.7-3.7h1.8l1.3,3.7h1.9l-1.3-3.7C666.3,82.7,666.2,82.6,666.2,82.6z M677.2,76.8h-5.9l-1.9,9.9h6.2l0.3-1.6
				h-4.4l0.5-2.7h3.3l0.3-1.6h-3.3l0.5-2.4h4.1L677.2,76.8z M685.2,76.8h-5.9l-1.9,9.9h6.2l0.3-1.6h-4.4l0.5-2.7h3.3l0.3-1.6h-3.3
				l0.5-2.4h4.1L685.2,76.8z M709.7,86.9l-8.8-8.4c-0.1-0.1-0.2-0.1-0.3-0.1h-2.1c-0.2,0-0.4,0.2-0.4,0.4v8.4c0,0.2,0.2,0.4,0.4,0.4
				h10.9C709.8,87.7,710,87.2,709.7,86.9z"/>
		</g>
	</g>
</g>
<g>
	<path d="M38,161v-16.9c0-0.5-0.4-0.8-0.8-0.8H5.4c-0.5,0-0.8,0.4-0.8,0.8V161c0,0.5,0.4,0.8,0.8,0.8h31.7
		C37.6,161.9,38,161.5,38,161z M36.3,160.2H6.2V145h30.1V160.2z"/>
	<path d="M20.4,163.7v0.7c0,0.5,0.4,0.8,0.8,0.8c0.5,0,0.8-0.4,0.8-0.8v-0.7c0-0.5-0.4-0.8-0.8-0.8S20.4,163.2,20.4,163.7z"/>
	<path d="M51.8,167.5c0-2.8-2.3-5.1-5.1-5.1s-5.1,2.3-5.1,5.1s2.3,5.1,5.1,5.1C49.6,172.6,51.8,170.3,51.8,167.5z M43.4,167.5
		c0-1.9,1.5-3.4,3.4-3.4s3.4,1.5,3.4,3.4s-1.5,3.4-3.4,3.4S43.4,169.4,43.4,167.5z"/>
	<path d="M41.7,149.1c0,0.5,0.4,0.8,0.8,0.8h8.3c0.5,0,0.8-0.4,0.8-0.8c0-0.5-0.4-0.8-0.8-0.8h-8.3
		C42.1,148.2,41.7,148.6,41.7,149.1z"/>
	<path d="M49,145c0.5,0,0.8-0.4,0.8-0.8s-0.4-0.8-0.8-0.8h-4.4c-0.5,0-0.8,0.4-0.8,0.8s0.4,0.8,0.8,0.8H49z"/>
	<path d="M55.5,137H38c-1.6,0-3,1.2-3.2,2.7H14c-0.5,0-0.8,0.4-0.8,0.8c0,0.5,0.4,0.8,0.8,0.8h24.2c0.8,0,1.5,0.7,1.5,1.5v21.9
		c0,0.8-0.7,1.5-1.5,1.5H4.3c-0.8,0-1.5-0.7-1.5-1.5V143c0-0.9,0.7-1.5,1.5-1.5h6.6c0.5,0,0.8-0.4,0.8-0.8c0-0.5-0.4-0.8-0.8-0.8
		H4.3c-1.8,0-3.2,1.4-3.2,3.2V165c0,1.8,1.4,3.2,3.2,3.2h8.3v2.8c-2.2,0.2-3.8,2-3.8,4.2c0,1,0.8,1.8,1.8,1.8H32
		c1,0,1.8-0.8,1.8-1.8c0-2.2-1.7-4-3.8-4.2v-2.8h4.9v5.6c0,1.8,1.4,3.2,3.2,3.2H43c0.5,0,0.8-0.4,0.8-0.8c0-0.5-0.4-0.8-0.8-0.8h-5
		c-0.8,0-1.5-0.7-1.5-1.5v-5.6h1.8c1.8,0,3.2-1.4,3.2-3.2v-6.5h13.8c0.5,0,0.8-0.4,0.8-0.8V155c0-0.5-0.4-0.8-0.8-0.8H41.5v-11
		c0-1.8-1.4-3.2-3.2-3.2h-1.7c0.2-0.6,0.8-1.1,1.5-1.1h17.5c0.8,0,1.5,0.7,1.5,1.5v33.5c0,0.8-0.7,1.5-1.5,1.5h-9.4
		c-0.5,0-0.8,0.4-0.8,0.8c0,0.5,0.4,0.8,0.8,0.8h9.4c1.8,0,3.2-1.4,3.2-3.2v-33.5C58.7,138.4,57.3,137,55.5,137z M32.1,175.2
		c0,0.1-0.1,0.1-0.1,0.1c-22.6-0.1-21.5,0.1-21.5-0.1c0-1.4,1.2-2.6,2.6-2.6h16.5C30.9,172.6,32.1,173.8,32.1,175.2z M28.3,170.9
		h-14v-2.8h14V170.9z M54.4,155.6v1.1H41.5v-1.1H54.4z"/>
</g>
<g>
	<g>
		<g>
			<path d="M151.6,172.3c-0.1-0.1-0.1-0.1-0.2-0.1H91.1c-0.1,0-0.2,0-0.2,0.1c-0.1,0.1-0.1,0.2-0.1,0.2c0,0.1,0.9,5.6,8,5.6h44.9
				c7.1,0,8-5.6,8-5.6C151.7,172.5,151.7,172.4,151.6,172.3z M125.8,176.2h-9.1v-2.1h9.1V176.2z"/>
			<path d="M97.3,170h47.8c0.7,0,1.3-0.6,1.3-1.3v-29.3c0-0.7-0.6-1.3-1.3-1.3H97.3c-0.7,0-1.3,0.6-1.3,1.3v29.3
				C96.1,169.5,96.7,170,97.3,170z M100.5,142.6H142v23.1h-41.5C100.5,165.6,100.5,142.6,100.5,142.6z"/>
		</g>
	</g>
</g>
<g>
	<g>
		<path d="M226.8,139.6v3c-0.8,0.5-1.4,1.5-1.4,2.5s0.5,2,1.4,2.5v28.8H190v-28.8c0.8-0.5,1.4-1.4,1.4-2.5c0-1-0.5-2-1.4-2.5v-3
			h28.4c0.5,0.8,1.5,1.4,2.5,1.4s2-0.5,2.5-1.4H226.8 M226.8,138h-4.6c0,0.8-0.6,1.4-1.4,1.4c-0.8,0-1.4-0.6-1.4-1.4H190
			c-0.9,0-1.6,0.7-1.6,1.6v4.1l0,0c0.8,0,1.4,0.6,1.4,1.4c0,0.8-0.6,1.4-1.4,1.4l0,0v29.9c0,0.9,0.7,1.6,1.6,1.6h36.8
			c0.9,0,1.6-0.7,1.6-1.6v-29.9c-0.8,0-1.4-0.6-1.4-1.4c0-0.8,0.6-1.4,1.4-1.4v-4.1C228.4,138.7,227.7,138,226.8,138L226.8,138z
			 M220.7,144.4c0.9,0,1.6,0.7,1.6,1.6v24c0,0.9-0.7,1.6-1.6,1.6h-24.1c-0.9,0-1.6-0.7-1.6-1.6v-24c0-0.9,0.7-1.6,1.6-1.6H220.7
			 M220.7,142.8h-24.1c-1.8,0-3.2,1.4-3.2,3.2v24c0,1.8,1.4,3.2,3.2,3.2h24.1c1.8,0,3.2-1.4,3.2-3.2v-24
			C223.9,144.2,222.5,142.8,220.7,142.8L220.7,142.8z M204.2,161.4c-0.4,0.3-0.8,0.6-1.3,0.7c-0.5,0.2-0.9,0.3-1.4,0.3
			c-0.4,0-0.7,0-1.1-0.1c-0.4-0.1-0.7-0.2-1-0.4s-0.6-0.4-0.8-0.7c-0.3-0.3-0.5-0.5-0.7-0.8s-0.3-0.6-0.4-1
			c-0.1-0.4-0.1-0.7-0.1-1.1c0-0.4,0-0.8,0.1-1.1c0.1-0.4,0.2-0.7,0.4-1s0.4-0.6,0.7-0.8s0.5-0.5,0.8-0.7s0.6-0.3,1-0.4
			c0.4-0.1,0.7-0.1,1.1-0.1c0.5,0,1,0.1,1.4,0.3c0.5,0.2,0.9,0.4,1.3,0.7l-0.9,1.4c-0.2-0.3-0.5-0.5-0.8-0.6s-0.7-0.2-1-0.2
			c-0.4,0-0.7,0.1-1,0.2c-0.3,0.1-0.6,0.3-0.8,0.5s-0.4,0.5-0.6,0.8c-0.1,0.3-0.2,0.6-0.2,1s0.1,0.7,0.2,1c0.1,0.3,0.3,0.6,0.6,0.8
			c0.2,0.2,0.5,0.4,0.8,0.6c0.3,0.1,0.6,0.2,1,0.2s0.7-0.1,1-0.2c0.3-0.1,0.6-0.3,0.8-0.6L204.2,161.4z M206.7,162.2h-1.6v-8.1h3.2
			c0.3,0,0.6,0,0.9,0.1c0.3,0.1,0.5,0.2,0.8,0.3c0.2,0.1,0.5,0.3,0.7,0.5s0.4,0.4,0.5,0.7c0.1,0.2,0.2,0.5,0.3,0.8s0.1,0.6,0.1,0.9
			c0,0.4-0.1,0.9-0.3,1.2c-0.2,0.4-0.4,0.7-0.7,1s-0.6,0.5-1,0.7s-0.8,0.3-1.2,0.3h-1.6L206.7,162.2L206.7,162.2L206.7,162.2z
			 M206.7,155.8v3.2h1.6c0.2,0,0.4,0,0.6-0.1c0.2-0.1,0.4-0.2,0.5-0.3s0.3-0.3,0.3-0.5c0.1-0.2,0.1-0.4,0.1-0.6c0-0.2,0-0.4-0.1-0.6
			c-0.1-0.2-0.2-0.4-0.3-0.5s-0.3-0.3-0.5-0.3c-0.2-0.1-0.4-0.1-0.6-0.1h-1.6V155.8z M218.8,159c0,0.4-0.1,0.9-0.3,1.3
			c-0.2,0.4-0.4,0.7-0.7,1s-0.6,0.5-1,0.7s-0.8,0.3-1.3,0.3c-0.4,0-0.9-0.1-1.3-0.3c-0.4-0.2-0.7-0.4-1-0.7s-0.5-0.6-0.7-1
			s-0.3-0.8-0.3-1.3v-4.8h1.6v4.8c0,0.2,0,0.4,0.1,0.6c0.1,0.2,0.2,0.4,0.3,0.5s0.3,0.3,0.5,0.3c0.2,0.1,0.4,0.1,0.6,0.1
			s0.4,0,0.6-0.1c0.2-0.1,0.4-0.2,0.5-0.3s0.3-0.3,0.3-0.5c0.1-0.2,0.1-0.4,0.1-0.6v-4.8h1.6L218.8,159L218.8,159z"/>
	</g>
</g>
<g>
	<g>
		<path d="M313.3,137.3L313.3,137.3l-0.2-0.1h-42.3h-0.2v0.1c-1.4,0.1-2.4,1.2-2.6,2.5v0.2v27.9c0,0.5,0.1,1,0.4,1.4
			c0.5,1,1.3,1.4,2.4,1.4h15.4v3.9h-2.9c-0.7,0-1.3,0.6-1.3,1.3s0.6,1.3,1.3,1.3h17.3c0.7,0,1.3-0.6,1.3-1.3s-0.6-1.3-1.3-1.3h-2.9
			v-3.9H313c1.1,0,1.9-0.5,2.4-1.4c0.2-0.4,0.4-0.9,0.4-1.4V140v-0.2C315.7,138.5,314.6,137.4,313.3,137.3z M313.3,140.1V168
			c0,0.2-0.1,0.2-0.2,0.2h-42.3c-0.2,0-0.2-0.1-0.2-0.2v-27.9v-0.2h42.7V140.1L313.3,140.1z"/>
	</g>
</g>
<g>
	<title>Keyboard</title>
	<path d="M398.4,149.9h-19.3v-1.4c0-2.2-1.8-4-4-4l0,0h-11.3c-1.3,0-2.3-1-2.3-2.3s1-2.3,2.3-2.3h9.7c0.5,0,0.9-0.4,0.9-0.9
		s-0.4-0.9-0.9-0.9h-9.7c-2.2,0-4,1.8-4,4s1.8,4,4,4H375c1.3,0,2.3,1,2.3,2.3v1.4H358c-2.8,0-5.1,2.2-5.1,5.1l0,0v18
		c0,2.8,2.3,5.2,5.1,5.2h40.3c2.8,0,5.1-2.4,5.1-5.2v-18C403.5,152.2,401.2,149.9,398.4,149.9L398.4,149.9z M401.8,173.1
		c0,1.9-1.5,3.4-3.4,3.4H358c-1.9,0-3.4-1.5-3.4-3.4v-18c0-1.9,1.5-3.4,3.4-3.4h40.3c1.9,0,3.4,1.5,3.4,3.4v18H401.8z"/>
	<path d="M381.3,161.7c0-0.5-0.4-0.9-0.9-0.9h-4.6c-0.5,0-0.9,0.4-0.9,0.9v4.6c0,0.5,0.4,0.9,0.9,0.9h4.6c0.5,0,0.9-0.4,0.9-0.9
		V161.7z M376.7,162.6h3v2.9h-3V162.6z"/>
	<path d="M372.7,161.7c0-0.5-0.4-0.9-0.9-0.9h-4.6c-0.5,0-0.9,0.4-0.9,0.9v4.6c0,0.5,0.4,0.9,0.9,0.9h4.6c0.5,0,0.9-0.4,0.9-0.9
		V161.7z M368.1,162.6h3v2.9h-3V162.6z"/>
	<path d="M364.2,161.7c0-0.5-0.4-0.9-0.9-0.9h-4.6c-0.5,0-0.9,0.4-0.9,0.9v4.6c0,0.5,0.4,0.9,0.9,0.9h4.6c0.5,0,0.9-0.4,0.9-0.9
		V161.7z M362.5,165.5h-3v-2.9h3V165.5z"/>
	<path d="M389.9,161.7c0-0.5-0.4-0.9-0.9-0.9h-4.6c-0.5,0-0.9,0.4-0.9,0.9v4.6c0,0.5,0.4,0.9,0.9,0.9h4.6c0.5,0,0.9-0.4,0.9-0.9
		V161.7z M388.3,165.5h-3v-2.9h3V165.5z"/>
	<path d="M398.5,161.7c0-0.5-0.4-0.9-0.9-0.9H393c-0.5,0-0.9,0.4-0.9,0.9v4.6c0,0.5,0.4,0.9,0.9,0.9h4.6c0.5,0,0.9-0.4,0.9-0.9
		V161.7z M396.9,165.5h-3v-2.9h3V165.5z"/>
	<path d="M381.3,154.2c0-0.5-0.4-0.9-0.9-0.9h-4.6c-0.5,0-0.9,0.4-0.9,0.9v4.6c0,0.5,0.4,0.9,0.9,0.9h4.6c0.5,0,0.9-0.4,0.9-0.9
		V154.2z M376.7,155.1h3v2.9h-3V155.1z"/>
	<path d="M372.7,154.2c0-0.5-0.4-0.9-0.9-0.9h-4.6c-0.5,0-0.9,0.4-0.9,0.9v4.6c0,0.5,0.4,0.9,0.9,0.9h4.6c0.5,0,0.9-0.4,0.9-0.9
		V154.2z M368.1,155.1h3v2.9h-3V155.1z"/>
	<path d="M364.2,154.2c0-0.5-0.4-0.9-0.9-0.9h-4.6c-0.5,0-0.9,0.4-0.9,0.9v4.6c0,0.5,0.4,0.9,0.9,0.9h4.6c0.5,0,0.9-0.4,0.9-0.9
		V154.2z M362.5,157.9h-3V155h3V157.9z"/>
	<path d="M389.9,154.2c0-0.5-0.4-0.9-0.9-0.9h-4.6c-0.5,0-0.9,0.4-0.9,0.9v4.6c0,0.5,0.4,0.9,0.9,0.9h4.6c0.5,0,0.9-0.4,0.9-0.9
		V154.2z M388.3,157.9h-3V155h3V157.9z"/>
	<path d="M398.5,154.2c0-0.5-0.4-0.9-0.9-0.9H393c-0.5,0-0.9,0.4-0.9,0.9v4.6c0,0.5,0.4,0.9,0.9,0.9h4.6c0.5,0,0.9-0.4,0.9-0.9
		V154.2z M396.9,157.9h-3V155h3V157.9z"/>
	<path d="M364.2,169.2c0-0.5-0.4-0.9-0.9-0.9h-4.6c-0.5,0-0.9,0.4-0.9,0.9v4.6c0,0.5,0.4,0.9,0.9,0.9h4.6c0.5,0,0.9-0.4,0.9-0.9
		V169.2z M362.5,173h-3v-2.9h3V173z"/>
	<path d="M389.9,169.2c0-0.5-0.4-0.9-0.9-0.9h-21.8c-0.5,0-0.9,0.4-0.9,0.9v4.6c0,0.5,0.4,0.9,0.9,0.9H389c0.5,0,0.9-0.4,0.9-0.9
		V169.2z M388.3,173h-20.2v-2.9h20.2V173z"/>
	<path d="M398.5,169.2c0-0.5-0.4-0.9-0.9-0.9H393c-0.5,0-0.9,0.4-0.9,0.9v4.6c0,0.5,0.4,0.9,0.9,0.9h4.6c0.5,0,0.9-0.4,0.9-0.9
		V169.2z M396.9,173h-3v-2.9h3V173z"/>
</g>
<g>
	<path d="M449.7,137.7c-6.9,0-12.5,5.6-12.5,12.5v15.1c0,6.9,5.6,12.5,12.5,12.5s12.5-5.6,12.5-12.5v-15.1
		C462.2,143.3,456.6,137.7,449.7,137.7z M460.7,150.2v0.2c-3.2,1.7-6.8,2.6-10.5,2.7v-4.2c1.1-0.2,1.8-1.2,1.8-2.3v-3.1
		c0-1.1-0.8-2.1-1.8-2.3v-2C456,139.5,460.7,144.3,460.7,150.2z M449.7,142.2c0.7,0,1.3,0.6,1.3,1.3v3.1c0,0.7-0.6,1.3-1.3,1.3
		s-1.3-0.6-1.3-1.3v-3.1C448.4,142.8,449,142.2,449.7,142.2z M449.2,139.2v2c-1.1,0.2-1.8,1.2-1.8,2.3v3.1c0,1.1,0.8,2.1,1.8,2.3
		v4.2c-3.7-0.1-7.3-1-10.5-2.7v-0.2C438.7,144.3,443.4,139.5,449.2,139.2z M449.7,176.2c-6.1,0-11-4.9-11-11v-13.7
		c3.4,1.7,7.2,2.6,11,2.6s7.6-0.9,11-2.6v13.7C460.7,171.3,455.8,176.2,449.7,176.2z"/>
</g>
<g>
	<g>
		<path d="M526.4,138.2h-28.7c-3.1,0-5.6,2.5-5.6,5.6v28.7c0,3.1,2.5,5.6,5.6,5.6h28.7c3.1,0,5.6-2.5,5.6-5.6v-28.7
			C532,140.7,529.5,138.2,526.4,138.2z M529.3,172.5c0,1.6-1.3,3-3,3h-28.7c-1.6,0-3-1.3-3-3v-28.7c0-1.6,1.3-3,3-3h3.8
			c0.4,4.2,3.9,7.5,8.3,7.5h3.6c2.8,0,5,2.3,5,5v0.4c0.3,0,0.7-0.1,1-0.1s0.7,0,1,0.1v-0.4c0-3.9-3.2-7.1-7.1-7.1h-3.6
			c-3.2,0-5.8-2.4-6.2-5.5h22.9c1.6,0,3,1.3,3,3L529.3,172.5L529.3,172.5z"/>
		<path d="M519.3,155.1c-3.5,0-6.3,2.8-6.3,6.3v4.6c0,3.5,2.8,6.3,6.3,6.3s6.3-2.8,6.3-6.3v-4.6
			C525.6,157.9,522.8,155.1,519.3,155.1z M520.6,161.7c0,0.7-0.6,1.3-1.3,1.3s-1.3-0.6-1.3-1.3v-3.3c0-0.7,0.6-1.3,1.3-1.3
			s1.3,0.6,1.3,1.3V161.7z"/>
	</g>
</g>
<g>
	<g>
		<g>
			<path d="M587.8,136.7c-12.5,0-22.8,10.2-22.8,22.7v10.7c0,2.2,1.8,4,4,4h1.3v-13.3H569c-0.5,0-0.9,0.1-1.3,0.2v-1.6
				c0-11,9.1-20,20.1-20s20.1,9,20.1,20v1.6c-0.4-0.1-0.9-0.2-1.3-0.2h-1.3v13.3h1.3c2.2,0,4-1.8,4-4v-10.7
				C610.6,146.9,600.3,136.7,587.8,136.7z"/>
		</g>
	</g>
	<g>
		<g>
			<path d="M577,158.1h-1.3c-1.5,0-2.7,1.2-2.7,2.7v13.3c0,1.5,1.2,2.7,2.7,2.7h1.3c0.7,0,1.3-0.6,1.3-1.3v-16
				C578.4,158.7,577.8,158.1,577,158.1z"/>
		</g>
	</g>
	<g>
		<g>
			<path d="M599.9,158.1h-1.3c-0.7,0-1.3,0.6-1.3,1.3v16c0,0.7,0.6,1.3,1.3,1.3h1.3c1.5,0,2.7-1.2,2.7-2.7v-13.3
				C602.6,159.3,601.4,158.1,599.9,158.1z"/>
		</g>
	</g>
</g>
<g>
	<g transform="translate(599 596)">
		<g>
			<g>
				<path d="M102.2-433.8v-16.7c0-0.5-0.4-0.8-0.8-0.8H88c-0.5,0-0.8,0.4-0.8,0.8v16.7c0,0.5,0.4,0.8,0.8,0.8v1.7h-4.2v-1.7
					c0.5,0,0.8-0.4,0.8-0.8v-23.3c0-0.5-0.4-0.8-0.8-0.8H70.5c-0.5,0-0.8,0.4-0.8,0.8v23.3c0,0.5,0.4,0.8,0.8,0.8v1.7h-4.2v-1.7
					c0.5,0,0.8-0.4,0.8-0.8v-16.7c0-0.5-0.4-0.8-0.8-0.8H53c-0.5,0-0.8,0.4-0.8,0.8v16.7c0,0.5,0.4,0.8,0.8,0.8v1.7
					c-0.5,0-0.8,0.4-0.8,0.8v11.7c0,0.5,0.4,0.8,0.8,0.8h48.3c0.5,0,0.8-0.4,0.8-0.8v-11.7c0-0.5-0.4-0.8-0.8-0.8v-1.7
					C101.8-433,102.2-433.4,102.2-433.8z M59.7-448c2.3,0,4.2,1.9,4.2,4.2c0,2.3-1.9,4.2-4.2,4.2s-4.2-1.9-4.2-4.2
					S57.4-448,59.7-448z M62.2-437.2c0,0.5-0.4,0.8-0.8,0.8H58c-0.5,0-0.8-0.4-0.8-0.8s0.4-0.8,0.8-0.8h3.3
					C61.8-438,62.2-437.6,62.2-437.2z M58.9-424.7v2.5c0,0.5-0.4,0.8-0.8,0.8c-0.5,0-0.8-0.4-0.8-0.8v-2.5c-0.5,0-0.8-0.4-0.8-0.8
					c0-0.5,0.4-0.8,0.8-0.8v-0.8c0-0.5,0.4-0.8,0.8-0.8c0.5,0,0.8,0.4,0.8,0.8v0.8c0.5,0,0.8,0.4,0.8,0.8
					C59.7-425,59.3-424.7,58.9-424.7z M63.9-423v0.8c0,0.5-0.4,0.8-0.8,0.8s-0.8-0.4-0.8-0.8v-0.8c-0.5,0-0.8-0.4-0.8-0.8
					s0.4-0.8,0.8-0.8v-2.5c0-0.5,0.4-0.8,0.8-0.8s0.8,0.4,0.8,0.8v2.5c0.5,0,0.8,0.4,0.8,0.8S64.3-423,63.9-423z M64.7-431.3h-10
					v-1.7h10V-431.3z M68.9-422.2c0,0.5-0.4,0.8-0.8,0.8s-0.8-0.4-0.8-0.8c-0.5,0-0.8-0.4-0.8-0.8s0.4-0.8,0.8-0.8v-3.3
					c0-0.5,0.4-0.8,0.8-0.8s0.8,0.4,0.8,0.8v3.3c0.5,0,0.8,0.4,0.8,0.8S69.3-422.2,68.9-422.2z M94.7-448c2.3,0,4.2,1.9,4.2,4.2
					c0,2.3-1.9,4.2-4.2,4.2c-2.3,0-4.2-1.9-4.2-4.2S92.4-448,94.7-448z M97.2-437.2c0,0.5-0.4,0.8-0.8,0.8H93
					c-0.5,0-0.8-0.4-0.8-0.8s0.4-0.8,0.8-0.8h3.3C96.8-438,97.2-437.6,97.2-437.2z M77.2-454.7c2.3,0,4.2,1.9,4.2,4.2
					c0,2.3-1.9,4.2-4.2,4.2s-4.2-1.9-4.2-4.2C73-452.8,74.9-454.7,77.2-454.7z M77.2-444.7c2.3,0,4.2,1.9,4.2,4.2
					c0,2.3-1.9,4.2-4.2,4.2s-4.2-1.9-4.2-4.2C73-442.8,74.9-444.7,77.2-444.7z M72.2-433h10v1.7h-10V-433z M73.9-423.8v1.7
					c0,0.5-0.4,0.8-0.8,0.8s-0.8-0.4-0.8-0.8v-1.7c-0.5,0-0.8-0.4-0.8-0.8s0.4-0.8,0.8-0.8v-1.7c0-0.5,0.4-0.8,0.8-0.8
					s0.8,0.4,0.8,0.8v1.7c0.5,0,0.8,0.4,0.8,0.8C74.7-424.2,74.3-423.8,73.9-423.8z M89.7-422.2c0,0.5-0.4,0.8-0.8,0.8H77.2
					c-0.5,0-0.8-0.4-0.8-0.8v-5c0-0.5,0.4-0.8,0.8-0.8h11.7c0.5,0,0.8,0.4,0.8,0.8V-422.2L89.7-422.2z M94.7-421.3
					c-1.8,0-3.3-1.5-3.3-3.3s1.5-3.3,3.3-3.3s3.3,1.5,3.3,3.3S96.5-421.3,94.7-421.3z M99.7-431.3h-10v-1.7h10V-431.3z"/>
				<path d="M94.7-426.3c-0.9,0-1.7,0.7-1.7,1.7c0,0.9,0.7,1.7,1.7,1.7c0.9,0,1.7-0.7,1.7-1.7C96.4-425.6,95.6-426.3,94.7-426.3z"/>
				<rect x="78" y="-426.3" width="10" height="3.3"/>
				<path d="M94.7-441.3c1.4,0,2.5-1.1,2.5-2.5s-1.1-2.5-2.5-2.5s-2.5,1.1-2.5,2.5S93.3-441.3,94.7-441.3z M94.7-444.7
					c0.5,0,0.8,0.4,0.8,0.8s-0.4,0.8-0.8,0.8c-0.5,0-0.8-0.4-0.8-0.8S94.2-444.7,94.7-444.7z"/>
				<path d="M77.2-438c1.4,0,2.5-1.1,2.5-2.5s-1.1-2.5-2.5-2.5s-2.5,1.1-2.5,2.5S75.8-438,77.2-438z M77.2-441.3
					c0.5,0,0.8,0.4,0.8,0.8s-0.4,0.8-0.8,0.8s-0.8-0.4-0.8-0.8S76.7-441.3,77.2-441.3z"/>
				<path d="M77.2-448c1.4,0,2.5-1.1,2.5-2.5s-1.1-2.5-2.5-2.5s-2.5,1.1-2.5,2.5S75.8-448,77.2-448z M77.2-451.3
					c0.5,0,0.8,0.4,0.8,0.8s-0.4,0.8-0.8,0.8s-0.8-0.4-0.8-0.8S76.7-451.3,77.2-451.3z"/>
				<path d="M59.7-441.3c1.4,0,2.5-1.1,2.5-2.5s-1.1-2.5-2.5-2.5s-2.5,1.1-2.5,2.5S58.3-441.3,59.7-441.3z M59.7-444.7
					c0.5,0,0.8,0.4,0.8,0.8s-0.4,0.8-0.8,0.8s-0.8-0.4-0.8-0.8C58.9-444.3,59.2-444.7,59.7-444.7z"/>
			</g>
		</g>
	</g>
</g>
<g>
	<g>
		<path d="M764.6,144.1c0.1-0.6-0.1-1.3-0.6-1.7l-2.4-1.7v-1.2c0-1.2-1.1-2.2-2.5-2.2h-5.5c-1.4,0-2.5,1-2.5,2.2v1.2l-2.4,1.7
			c-0.5,0.4-0.8,1-0.6,1.7l0.7,3.3l0,0c-0.1,0.3-0.1,0.7-0.2,1l-0.2,1.6c-0.1,0.8-0.2,1.7-0.2,2.5v6c0,1.1,0.9,2,2,2h12.5
			c1.1,0,2-0.9,2-2v-6c0-0.8-0.1-1.7-0.2-2.5l-0.2-1.6c0-0.3-0.1-0.7-0.2-1l0,0L764.6,144.1z M759.5,141.1l-0.2,0.8
			c0,0.1-0.2,0.3-0.3,0.3h-5.5c-0.2,0-0.3-0.1-0.3-0.3l-0.2-0.8c0-0.2,0.1-0.4,0.3-0.4h5.8C759.4,140.7,759.6,140.9,759.5,141.1z"/>
		<path d="M759.1,137.3h-5.5c-0.4,0-0.8,0.1-1.2,0.2l1.5,3.2h4.8l1.5-3.2C759.9,137.4,759.5,137.3,759.1,137.3z"/>
		<path d="M762.6,150.9l-0.2-1.6c0-0.3-0.1-0.6-0.2-0.9c-0.3-1.4-0.9-2.8-1.7-4l-0.1-0.1l0,0l0,0c0,0,0,0-0.1-0.1l-1.6-2h-4.8
			l-1.7,2.1l0,0l-0.1,0.1l0,0c-0.8,1.2-1.4,2.6-1.7,4l0,0c-0.1,0.3-0.1,0.6-0.2,0.9l-0.2,1.6c-0.1,0.8-0.1,1.5-0.1,2.3v6.3
			c0,0.5,0.4,1,1,1h10.8c0.5,0,1-0.4,1-1v-6.3C762.7,152.4,762.7,151.6,762.6,150.9z"/>
		<path class="st1" d="M757.6,160.5H755v-10.9c0-0.3,0.3-0.6,0.6-0.6h1.4c0.3,0,0.6,0.3,0.6,0.6V160.5z"/>
		<path d="M762.5,160.8H750c-1.3,0-2.3-1-2.3-2.3v-6c0-0.9,0.1-1.7,0.2-2.6l0.2-1.6c0-0.3,0.1-0.6,0.2-1l-0.7-3.2
			c-0.2-0.8,0.1-1.5,0.8-2l2.2-1.6v-1.1c0-1.4,1.3-2.5,2.9-2.5h5.5c1.6,0,2.9,1.1,2.9,2.5v1.1l2.2,1.6c0.6,0.5,0.9,1.2,0.8,2
			l-0.3-0.1l0.3,0.1l-0.7,3.2c0.1,0.3,0.1,0.6,0.2,1l0.2,1.6c0.1,0.8,0.2,1.7,0.2,2.6v6C764.8,159.8,763.8,160.8,762.5,160.8z
			 M749,147.3c0,0.1,0,0.1,0,0.2c-0.1,0.3-0.1,0.7-0.2,1l-0.2,1.6c-0.1,0.8-0.2,1.7-0.2,2.5v6c0,0.9,0.7,1.6,1.6,1.6h12.5
			c0.9,0,1.6-0.7,1.6-1.6v-6c0-0.8-0.1-1.7-0.2-2.5l-0.2-1.6c0-0.3-0.1-0.6-0.2-1c0-0.1,0-0.1,0-0.2l0.7-3.2c0.1-0.5-0.1-1-0.5-1.3
			l-2.4-1.7c-0.1-0.1-0.1-0.2-0.1-0.3v-1.2c0-1-1-1.8-2.2-1.8h-5.5c-1.2,0-2.2,0.8-2.2,1.8v1.2c0,0.1,0,0.2-0.1,0.3l-2.4,1.7
			c-0.4,0.3-0.6,0.8-0.5,1.3L749,147.3z M759.1,142.5h-5.5c-0.3,0-0.6-0.2-0.6-0.5l-0.2-0.8c0-0.2,0-0.4,0.1-0.6
			c0.1-0.2,0.3-0.2,0.5-0.2h5.8c0.2,0,0.4,0.1,0.5,0.2c0.1,0.2,0.2,0.4,0.1,0.6l-0.2,0.8C759.6,142.3,759.4,142.5,759.1,142.5z
			 M753.4,141.1l0.2,0.8h5.5l0.2-0.8H753.4z M759.5,141.1L759.5,141.1L759.5,141.1z"/>
		<path d="M756.7,176.7h-0.8c-0.1,0-0.3-0.1-0.3-0.3v-3.1c0-0.1,0.1-0.3,0.3-0.3h0.8c0.1,0,0.3,0.1,0.3,0.3v3.1
			C757,176.6,756.8,176.7,756.7,176.7z"/>
		<path d="M756.7,177h-0.8c-0.3,0-0.6-0.3-0.6-0.6v-3.1c0-0.3,0.3-0.6,0.6-0.6h0.8c0.3,0,0.6,0.3,0.6,0.6v3.1
			C757.3,176.7,757,177,756.7,177z M756,176.3h0.7v-3H756V176.3z"/>
		<path class="st1" d="M755.7,166.7v8.1c0,0.3,0.3,0.6,0.6,0.6h0.1c0.3,0,0.6-0.3,0.6-0.6v-8.1H755.7z"/>
		<path d="M756.4,175.7L756.4,175.7c-0.6,0-1-0.4-1-0.9v-8.1c0-0.2,0.1-0.3,0.3-0.3h1.3c0.2,0,0.3,0.1,0.3,0.3v8.1
			C757.3,175.3,756.9,175.7,756.4,175.7z M756,167v7.8c0,0.1,0.1,0.3,0.3,0.3h0.1c0.1,0,0.3-0.1,0.3-0.3V167H756z"/>
		<path class="st1" d="M761.7,171.2c-0.3-0.4-0.8-0.6-1.3-0.6h-8.3c-0.5,0-1,0.2-1.3,0.6l-1.5,1.9c0.4,0.1,0.8,0.4,1,0.8l1.5-2
			c0.1-0.1,0.2-0.1,0.3-0.1h8.3c0.1,0,0.2,0,0.3,0.1l1.4,1.8c0.3-0.4,0.7-0.6,1.1-0.7L761.7,171.2z"/>
		<path d="M768.2,157.4h-1.9c-0.4,0-0.7-0.3-0.7-0.7v-1c0-0.4,0.3-0.7,0.7-0.7h1.9c0.4,0,0.7,0.3,0.7,0.7v1
			C768.8,157.1,768.5,157.4,768.2,157.4z"/>
		<path d="M746.4,157.4h-1.9c-0.4,0-0.7-0.3-0.7-0.7v-1c0-0.4,0.3-0.7,0.7-0.7h1.9c0.4,0,0.7,0.3,0.7,0.7v1
			C747.1,157.1,746.8,157.4,746.4,157.4z"/>
		<path d="M750.6,174.9c0,1-0.8,1.8-1.8,1.8s-1.8-0.8-1.8-1.8s0.8-1.8,1.8-1.8C749.8,173.1,750.6,173.9,750.6,174.9z"/>
		<path class="st1" d="M749.6,174.9c0,0.5-0.4,0.8-0.8,0.8c-0.5,0-0.8-0.4-0.8-0.8c0-0.5,0.4-0.8,0.8-0.8
			C749.3,174,749.6,174.4,749.6,174.9z"/>
		<path d="M765.4,174.9c0,1-0.8,1.8-1.8,1.8s-1.8-0.8-1.8-1.8s0.8-1.8,1.8-1.8C764.6,173.1,765.4,173.9,765.4,174.9z"/>
		<path class="st1" d="M764.4,174.9c0,0.5-0.4,0.8-0.8,0.8c-0.5,0-0.8-0.4-0.8-0.8c0-0.5,0.4-0.8,0.8-0.8
			C764,174,764.4,174.4,764.4,174.9z"/>
		<g>
			<path d="M768.2,157.8h-1.9c-0.6,0-1-0.5-1-1v-1c0-0.6,0.5-1,1-1h1.9c0.6,0,1,0.5,1,1v1C769.2,157.3,768.7,157.8,768.2,157.8z
				 M766.2,155.4c-0.2,0-0.3,0.2-0.3,0.4v1c0,0.2,0.2,0.4,0.3,0.4h1.9c0.2,0,0.3-0.2,0.3-0.4v-1c0-0.2-0.2-0.4-0.3-0.4H766.2z"/>
			<path d="M746.4,157.8h-1.9c-0.6,0-1-0.5-1-1v-1c0-0.6,0.5-1,1-1h1.9c0.6,0,1,0.5,1,1v1C747.4,157.3,746.9,157.8,746.4,157.8z
				 M744.5,155.4c-0.2,0-0.4,0.2-0.4,0.4v1c0,0.2,0.2,0.4,0.4,0.4h1.9c0.2,0,0.4-0.2,0.4-0.4v-1c0-0.2-0.2-0.4-0.4-0.4H744.5z"/>
			<path d="M750.4,174.3L750.4,174.3c-0.1,0-0.2-0.1-0.3-0.2c-0.2-0.3-0.5-0.6-0.8-0.7c-0.1,0-0.2-0.1-0.2-0.2c0-0.1,0-0.2,0.1-0.3
				l1.5-1.9c0.4-0.5,0.9-0.8,1.6-0.8h8.3c0.6,0,1.2,0.3,1.6,0.8l1.5,1.9c0.1,0.1,0.1,0.2,0,0.3c0,0.1-0.1,0.2-0.2,0.2
				c-0.4,0.1-0.7,0.3-0.9,0.6c-0.1,0.1-0.2,0.1-0.3,0.1s-0.2,0-0.3-0.1l-1.4-1.8h-8.3l-1.5,2C750.6,174.3,750.5,174.3,750.4,174.3z
				 M749.9,173c0.2,0.1,0.4,0.2,0.5,0.4l1.3-1.6c0.1-0.2,0.3-0.3,0.5-0.3h8.3c0.2,0,0.4,0.1,0.5,0.3l1.2,1.5
				c0.2-0.1,0.3-0.3,0.5-0.4l-1.2-1.5c-0.3-0.3-0.6-0.5-1-0.5h-8.3c-0.4,0-0.8,0.2-1,0.5L749.9,173z"/>
			<path d="M748.8,177c-1.2,0-2.1-1-2.1-2.1c0-1.2,1-2.1,2.1-2.1c1.2,0,2.1,1,2.1,2.1C750.9,176,750,177,748.8,177z M748.8,173.4
				c-0.8,0-1.5,0.7-1.5,1.5s0.7,1.5,1.5,1.5s1.5-0.7,1.5-1.5C750.3,174.1,749.6,173.4,748.8,173.4z"/>
			<path d="M763.6,177c-1.2,0-2.1-1-2.1-2.1c0-1.2,1-2.1,2.1-2.1c1.2,0,2.1,1,2.1,2.1C765.7,176,764.7,177,763.6,177z M763.6,173.4
				c-0.8,0-1.5,0.7-1.5,1.5s0.7,1.5,1.5,1.5s1.5-0.7,1.5-1.5C765,174.1,764.4,173.4,763.6,173.4z"/>
		</g>
		<path class="st1" d="M766.1,166.7h-19.7c-0.4,0-0.7-0.3-0.7-0.7v-1c0-0.4,0.3-0.7,0.7-0.7h19.7c0.4,0,0.7,0.3,0.7,0.7v1
			C766.8,166.4,766.5,166.7,766.1,166.7z"/>
		<path d="M765.6,158.7c-1.2-0.3-2.5,0.3-2.8,1.4l-1.1,3.6v0.7h3.2l1.4-4.7C766.4,159.2,766.1,158.8,765.6,158.7z"/>
		<path d="M749.8,160.1c-0.3-1.1-1.6-1.7-2.8-1.4c-0.5,0.1-0.8,0.6-0.7,1.1l1.4,4.7h3.2v-0.7L749.8,160.1z"/>
		<path d="M764.9,164.7h-3.2c-0.2,0-0.3-0.1-0.3-0.3v-0.7v-0.1l1.1-3.6c0.4-1.2,1.8-2,3.2-1.6c0.4,0.1,0.7,0.3,0.8,0.6
			c0.2,0.3,0.2,0.6,0.1,0.9l-1.4,4.7C765.1,164.6,765,164.7,764.9,164.7z M762,164.1h2.6l1.4-4.5c0-0.1,0-0.3,0-0.3
			c-0.1-0.1-0.2-0.2-0.4-0.3c-1.1-0.2-2.1,0.3-2.4,1.2l-1.1,3.5L762,164.1L762,164.1z"/>
		<path d="M750.9,164.7h-3.2c-0.1,0-0.3-0.1-0.3-0.2l-1.4-4.7c-0.1-0.3-0.1-0.6,0.1-0.9c0.2-0.3,0.5-0.5,0.8-0.6
			c1.4-0.3,2.8,0.4,3.2,1.6l1.1,3.6v0.1v0.7C751.2,164.6,751.1,164.7,750.9,164.7z M748,164.1h2.6v-0.4l-1.1-3.5
			c-0.3-0.9-1.4-1.4-2.4-1.2c-0.2,0-0.3,0.1-0.4,0.3c0,0.1-0.1,0.2,0,0.3L748,164.1z"/>
		<path d="M764.6,164.4H748c-0.2,0-0.3-0.1-0.3-0.3v-1.7c0-1.1,0.9-2,2-2H763c1.1,0,2,0.9,2,2v1.7
			C764.9,164.3,764.8,164.4,764.6,164.4z"/>
		<path d="M764.6,164.7H748c-0.4,0-0.7-0.3-0.7-0.7v-1.7c0-1.3,1-2.3,2.3-2.3H763c1.3,0,2.3,1,2.3,2.3v1.7
			C765.2,164.4,764.9,164.7,764.6,164.7z M749.7,160.8c-0.9,0-1.6,0.7-1.6,1.6v1.7h16.6v-1.6c0-0.9-0.7-1.6-1.6-1.6L749.7,160.8
			L749.7,160.8z"/>
		<path class="st1" d="M745.8,165.1c0-0.3,0.2-0.5,0.4-0.6v-7h-1.6v7.8c0,0.4,0.3,0.7,0.7,0.7h0.6v-0.9H745.8z"/>
		<path class="st1" d="M766.4,157.4v7c0.2,0.1,0.4,0.3,0.4,0.6v0.8h0.6c0.4,0,0.7-0.3,0.7-0.7v-7.8L766.4,157.4L766.4,157.4z"/>
		<path d="M766.1,167h-19.7c-0.5,0-1-0.4-1-1v-1c0-0.5,0.4-1,1-1h19.7c0.5,0,1,0.4,1,1v1C767.1,166.6,766.7,167,766.1,167z
			 M746.5,164.7c-0.2,0-0.3,0.1-0.3,0.3v1c0,0.2,0.1,0.3,0.3,0.3h19.7c0.2,0,0.3-0.1,0.3-0.3v-1c0-0.2-0.1-0.3-0.3-0.3H746.5z"/>
		<path d="M745.8,166.2h-0.6c-0.5,0-1-0.4-1-1v-7.8c0-0.2,0.1-0.3,0.3-0.3h1.6c0.2,0,0.3,0.1,0.3,0.3v7c0,0.1-0.1,0.2-0.2,0.3
			c-0.1,0.1-0.2,0.2-0.2,0.3v0.8C746.1,166.1,746,166.2,745.8,166.2z M744.9,157.8v7.5c0,0.2,0.1,0.3,0.3,0.3h0.3v-0.5
			c0-0.3,0.1-0.6,0.4-0.8v-6.5H744.9z"/>
		<path d="M767.4,166.2h-0.6c-0.2,0-0.3-0.1-0.3-0.3v-0.8c0-0.1-0.1-0.3-0.2-0.3c-0.1,0-0.2-0.2-0.2-0.3v-7c0-0.2,0.1-0.3,0.3-0.3
			h1.6c0.2,0,0.3,0.1,0.3,0.3v7.8C768.3,165.8,767.9,166.2,767.4,166.2z M767.1,165.6h0.2c0.2,0,0.3-0.1,0.3-0.3v-7.5h-1v6.5
			c0.3,0.2,0.4,0.5,0.4,0.8L767.1,165.6L767.1,165.6z"/>
	</g>
</g>
<g>
	<g>
		<path d="M807.4,150.5h2.6v26.9h-5.3l2.7-2.4V150.5z M807.4,149.6h2.6v-11.8h-2.6V149.6z M819.6,173.8c-0.1,0.6-0.1,1.3-0.1,1.9
			c0,0.5,0.1,1.1,0.4,1.7h-9.1v-26.9l2.3,0.2l15.7,3.2v9.5c-0.1,0-0.1,0.1-0.2,0.2h-1.1c-0.2-0.2-0.3-0.3-0.6-0.4
			c-1.1-0.4-2.3-0.4-3.4,0c-0.2,0.1-0.3,0.2-0.5,0.3c-0.1,0.1-0.2,0.2-0.3,0.3s-0.2,0.2-0.3,0.3c-0.2,0.2-0.3,0.5-0.5,0.7l-0.2,0.3
			c-0.4,0.6-0.6,1.2-0.8,1.7c-0.3,1-0.6,2.1-0.8,3.4C820,171.4,819.7,172.6,819.6,173.8z M812.1,171.2L812.1,171.2
			c0.1,0,0.2,0.1,0.3,0.1h0.1c0.1,0,0.1,0.1,0.1,0.2c0,0.2,0,0.5,0,0.7v0.1c0,0.1,0.1,0.2,0.1,0.2c0.1,0,0.1,0.1,0.2,0.1
			c0.1,0,0.3,0,0.3-0.2c0-0.4,0-0.7,0-1.1l0,0h-0.1l0,0c0,0.2,0,0.4,0,0.6c0,0.1,0,0.3,0,0.4c0,0.1,0,0.1-0.1,0.1h-0.1
			c-0.1,0-0.1-0.1-0.1-0.2c0-0.3,0-0.5,0-0.8c0-0.1-0.1-0.3-0.3-0.3c-0.1,0-0.2-0.1-0.4-0.1l0,0
			C812.1,171.1,812.1,171.2,812.1,171.2z M812.1,172.7c0,0.1,0,0.1,0.1,0.2c0.1,0.1,0.1,0.1,0.2,0.2c0.2,0,0.3,0.1,0.5,0.1
			c0,0,0,0,0.1,0s0.1,0.1,0.1,0.1s0,0,0,0.1c0,0.2,0,0.3,0,0.5l0,0l0,0h0.1l0,0c0-0.2,0-0.4,0-0.6c0-0.1,0-0.1-0.1-0.2
			c-0.1,0-0.1-0.1-0.2-0.1c-0.2,0-0.3-0.1-0.5-0.1C812.3,172.9,812.2,172.8,812.1,172.7c0.1-0.2,0.1-0.4,0.1-0.5l0,0l0,0h-0.1l0,0
			C812.1,172.3,812.1,172.5,812.1,172.7z M813.2,174.8v-0.1c-0.1-0.1-0.1-0.2-0.2-0.3c-0.2-0.3-0.4-0.7-0.6-1l0,0h-0.1
			c0,0,0,0,0,0.1c0,0.3,0,0.7,0,1l0,0h-0.1c0,0.1,0,0.1,0,0.2h0.1l0,0c0,0.1,0,0.1,0,0.2l0,0h0.1l0,0c0-0.1,0-0.1,0-0.2l0,0
			C812.6,174.8,812.9,174.8,813.2,174.8C813.1,174.8,813.1,174.8,813.2,174.8L813.2,174.8z M812.4,173.5
			C812.3,173.5,812.3,173.5,812.4,173.5C812.3,173.5,812.3,173.5,812.4,173.5c0,0.3,0,0.6,0,0.9l0,0c0.2,0.1,0.4,0.1,0.6,0.2l0,0
			C812.8,174.2,812.6,173.9,812.4,173.5z M828.8,153.1v-10.3l-15.3-5.1h-2.7v11.8l2.4,0.2L828.8,153.1z M825.7,168.6l-0.5-0.5
			c0-0.1-0.1-0.1-0.2,0l-0.5,0.5c-0.1,0.1-0.1,0.2-0.1,0.3v1c0,0.2,0.1,0.3,0.3,0.3h0.7c0.2,0,0.3-0.1,0.3-0.3v-1
			C825.9,168.8,825.8,168.7,825.7,168.6L825.7,168.6L825.7,168.6z M824.9,167.7l-0.5-0.5l0,0c-0.1-0.1-0.2-0.1-0.3-0.1h-1
			c-0.2,0-0.3,0.1-0.3,0.3v0.7c0,0.2,0.1,0.3,0.3,0.3h1c0.1,0,0.2-0.1,0.3-0.1L824.9,167.7C825,167.8,825,167.7,824.9,167.7z
			 M829.8,167.6h4.9c0.2,0,0.4-0.2,0.4-0.4l0,0v-2.5l0,0c0-0.2-0.2-0.4-0.4-0.4h-4.9c-0.2,0-0.4,0.2-0.4,0.4l0,0v2.5l0,0
			C829.4,167.4,829.6,167.6,829.8,167.6z M825.1,167.6c0,0.1,0.1,0.1,0.2,0l0.5-0.5l0,0c0.1-0.1,0.1-0.2,0.1-0.3v-1
			c0-0.2-0.1-0.3-0.3-0.3h-0.7c-0.2,0-0.3,0.1-0.3,0.3v1c0,0.1,0.1,0.2,0.1,0.3L825.1,167.6z M841.1,167c0.4,0,0.8,0.3,0.8,0.8
			c0,0.4-0.3,0.8-0.8,0.8c-0.4,0-0.8-0.3-0.8-0.8C840.4,167.3,840.7,167,841.1,167z M841.1,167.2c-0.3,0-0.5,0.2-0.5,0.5
			s0.2,0.5,0.5,0.5s0.5-0.2,0.5-0.5C841.6,167.5,841.4,167.2,841.1,167.2z M839.1,166.4h0.7l-0.4-0.6L839.1,166.4z M840.2,166.1
			c0,0.4-0.3,0.8-0.8,0.8c-0.4,0-0.8-0.3-0.8-0.8c0-0.4,0.3-0.8,0.8-0.8C839.8,165.4,840.2,165.7,840.2,166.1z M840,166.5l-0.5-0.9
			l-0.5,0.9H840z M840.7,167.7c0,0.2,0.2,0.4,0.4,0.4s0.4-0.2,0.4-0.4s-0.2-0.4-0.4-0.4S840.7,167.5,840.7,167.7z M840.2,169.4
			c0,0.4-0.3,0.8-0.8,0.8c-0.4,0-0.8-0.3-0.8-0.8s0.3-0.8,0.8-0.8C839.8,168.6,840.2,168.9,840.2,169.4z M839.5,169.4l0.4-0.4
			l-0.1-0.1L839.5,169.4l-0.4-0.4H839L839.5,169.4l-0.5,0.4l0.1,0.1L839.5,169.4l0.3,0.4l0.1-0.1L839.5,169.4z M843.7,175.4
			c0,0.7-0.2,1.3-0.9,1.9c-1.3,1-3,0.3-3.3-0.2c-0.4-0.5-0.7-1.4-0.9-2.1c-0.2-0.6-0.4-1.2-0.6-1.8c-0.1-0.2-0.2-0.3-0.4-0.3h-0.1
			c-0.9,0.6-2,0.6-2.8,0c0,0-0.1-0.1-0.2-0.1c-0.3,0-0.9,0-1.5,0l0,0c-0.1,0-0.4,0-0.7,0s-0.6,0-0.7,0l0,0c-0.6,0-1.3,0-1.5,0
			c-0.1,0-0.1,0-0.2,0.1c-0.8,0.7-2,0.7-2.8,0H827c-0.2,0.1-0.3,0.1-0.4,0.3c-0.2,0.6-0.4,1.2-0.6,1.8c-0.2,0.7-0.6,1.5-0.9,2.1
			c-0.4,0.5-2.1,1.2-3.3,0.2c-0.7-0.6-0.9-1.1-0.9-1.9c0-0.6,0-1.1,0.1-1.7c0.1-1.1,0.3-2.3,0.6-3.4c0.2-1.1,0.5-2.2,0.8-3.3
			c0.1-0.5,0.3-1,0.6-1.4c0.2-0.3,0.4-0.7,0.7-1c0-0.1,0.1-0.1,0.2-0.1c0.1,0,0.1,0,0.1-0.1c0,0,0-0.1,0.1-0.1c0,0,0.1-0.1,0.2-0.1
			c0.8-0.3,1.6-0.3,2.4,0c0.1,0,0.1,0.1,0.1,0.1c0,0.1,0,0.2,0.1,0.2l0,0c0.2,0.1,0.4,0.1,0.6,0.1h1.8v2.5c0,0.4,0.3,0.7,0.7,0.7
			h4.9c0.4,0,0.7-0.3,0.7-0.7v-2.5h1.8c0.2,0,0.4,0,0.6-0.1l0,0c0.1,0,0.2-0.1,0.1-0.2c0-0.1,0-0.1,0.1-0.1c0.8-0.3,1.6-0.3,2.4,0
			c0.1,0,0.1,0.1,0.2,0.1l0.1,0.1c0,0.1,0,0.1,0.1,0.1s0.1,0.1,0.2,0.1c0.2,0.3,0.4,0.7,0.7,1c0.3,0.4,0.5,0.9,0.6,1.4
			c0.3,1.1,0.6,2.2,0.8,3.3s0.4,2.2,0.6,3.4C843.7,174.2,843.7,174.8,843.7,175.4z M828,166.3c0,0.3,0.2,0.5,0.5,0.5
			s0.5-0.2,0.5-0.5v-0.9c0-0.3-0.2-0.5-0.5-0.5s-0.5,0.2-0.5,0.5C828,165.4,828,166.3,828,166.3z M827.8,167.8
			c0-1.4-1.2-2.6-2.6-2.6c-1.4,0-2.6,1.2-2.6,2.6s1.2,2.6,2.6,2.6C826.6,170.4,827.8,169.2,827.8,167.8z M829.8,171.6
			c0-0.7-0.6-1.3-1.3-1.3s-1.3,0.6-1.3,1.3s0.6,1.3,1.3,1.3C829.2,172.9,829.8,172.3,829.8,171.6z M832.2,171.6
			C832.2,171.6,832.3,171.6,832.2,171.6c0.2,0,0.2,0,0.3-0.1c0-0.1,0-0.1,0-0.2c0-0.1-0.1-0.2-0.2-0.2c-0.4,0-0.7,0-1.1,0l0,0
			c0,0,0,0,0,0.1l0,0c0.2,0,0.4,0,0.6,0c0.1,0,0.3,0,0.4,0c0.1,0,0.1,0,0.1,0.1v0.1C832.3,171.5,832.3,171.5,832.2,171.6
			c-0.3-0.1-0.6-0.1-0.8-0.1c-0.1,0-0.2,0.1-0.2,0.2c0,0.1,0,0.2,0,0.3l0,0c0.1,0,0.1,0,0.2,0l0,0c0-0.1,0-0.1,0-0.2c0,0,0,0,0-0.1
			s0-0.1,0.1-0.1C831.7,171.6,832,171.6,832.2,171.6z M833.7,171.1L833.7,171.1c-0.2,0-0.4,0-0.6,0c-0.1,0-0.1,0-0.2,0.1v0.1
			c0,0.1,0,0.3,0,0.4c0,0.1,0,0.1-0.1,0.1c-0.2,0-0.3,0-0.5,0l0,0l0,0c0,0,0,0,0,0.1l0,0c0.2,0,0.4,0,0.6,0c0.1,0,0.1,0,0.2,0
			c0.1,0,0.1-0.1,0.1-0.2c0-0.1,0-0.3,0-0.4c0,0,0,0,0-0.1s0-0.1,0.1-0.1l0,0C833.4,171.2,833.5,171.2,833.7,171.1
			C833.7,171.2,833.7,171.2,833.7,171.1C833.7,171.2,833.7,171.2,833.7,171.1C833.7,171.2,833.7,171.2,833.7,171.1z M835.7,166.3
			c0,0.3,0.2,0.5,0.5,0.5s0.5-0.2,0.5-0.5v-0.9c0-0.3-0.2-0.5-0.5-0.5s-0.5,0.2-0.5,0.5V166.3z M837.4,171.6c0-0.7-0.6-1.3-1.3-1.3
			s-1.3,0.6-1.3,1.3s0.6,1.3,1.3,1.3C836.8,172.9,837.4,172.3,837.4,171.6z M842,167.8c0-1.4-1.2-2.6-2.6-2.6s-2.6,1.2-2.6,2.6
			s1.2,2.6,2.6,2.6S842,169.2,842,167.8z M838.6,167.7c0,0.4-0.3,0.8-0.8,0.8c-0.4,0-0.8-0.3-0.8-0.8c0-0.4,0.3-0.8,0.8-0.8
			C838.2,167,838.6,167.3,838.6,167.7z M838.2,167.3h-0.8v0.8h0.8V167.3z M827.1,167.1h-1c-0.1,0-0.2,0-0.3,0.1l0,0l-0.5,0.5
			c-0.1,0-0.1,0.1,0,0.2l0.5,0.5c0.1,0.1,0.2,0.1,0.3,0.1h1c0.2,0,0.3-0.1,0.3-0.3v-0.7C827.5,167.2,827.3,167.1,827.1,167.1z
			 M838.1,167.4h-0.6v0.6h0.6V167.4z"/>
	</g>
</g>
<g>
	<g>
		<g>
			<g>
				<path d="M883.8,146.4h14.9c0.4,0,0.8-0.4,0.8-0.8V139h-16.6v6.6C882.9,146,883.3,146.4,883.8,146.4z"/>
				<path d="M910.6,149.1l-8.4-8.5v5c0,1.9-1.6,3.5-3.5,3.5h-14.9c-1.9,0-3.5-1.6-3.5-3.5V139h-5.4c-2,0-3.7,1.6-3.7,3.7v32.7
					c0,2,1.6,3.7,3.7,3.7h32.7c2,0,3.7-1.6,3.7-3.7v-24.8C911.2,150,911,149.5,910.6,149.1z M905,170.6c0,1.2-1,2.1-2.1,2.1h-23.3
					c-1.2,0-2.1-1-2.1-2.1v-11.2c0-1.2,1-2.1,2.1-2.1h23.3c1.2,0,2.1,1,2.1,2.1V170.6z"/>
				<path d="M900.4,160.7H882c-0.7,0-1.3,0.6-1.3,1.3s0.6,1.3,1.3,1.3h18.4c0.7,0,1.3-0.6,1.3-1.3S901.2,160.7,900.4,160.7z"/>
				<path d="M897.7,166h-13.1c-0.7,0-1.3,0.6-1.3,1.3s0.6,1.3,1.3,1.3h13.1c0.7,0,1.3-0.6,1.3-1.3C899.1,166.6,898.5,166,897.7,166z
					"/>
			</g>
		</g>
	</g>
</g>
<g>
	<g>
		<g>
			<path d="M968.6,146.1h-5.3c-0.7,0-1.3,0.6-1.3,1.3v5.3c0,0.7,0.6,1.3,1.3,1.3h0.7v0.7c0,0.3-0.2,0.5-0.4,0.6l-6.3,2.7v-12h2.7
				c0.4,0,0.7-0.3,0.7-0.7c0-0.1,0-0.2-0.1-0.3l-4.7-8c-0.2-0.3-0.6-0.4-0.9-0.2c-0.1,0.1-0.2,0.1-0.2,0.2l-4.7,8
				c-0.2,0.3-0.1,0.7,0.2,0.9c0.1,0.1,0.2,0.1,0.3,0.1h2.7v14l-6.3-2.7c-0.2-0.1-0.4-0.3-0.4-0.6v-1.1c1.6-0.8,2.7-2.4,2.7-4.2
				c0-2.6-2.1-4.7-4.7-4.7c-2.6,0-4.7,2.1-4.7,4.7c0,1.8,1,3.4,2.7,4.2v2.5c0,1.1,0.6,2,1.6,2.4l8.7,3.8c0.2,0.1,0.4,0.3,0.4,0.6
				v0.2c-3.1,1.1-4.8,4.5-3.7,7.7c1.1,3.1,4.5,4.8,7.7,3.7c3.1-1.1,4.8-4.5,3.7-7.7c-0.6-1.7-1.9-3.1-3.7-3.7v-2.2
				c0-0.3,0.2-0.5,0.4-0.6l8.7-3.8c1-0.4,1.6-1.4,1.6-2.4v-2h0.7c0.7,0,1.3-0.6,1.3-1.3v-5.3C970,146.6,969.4,146.1,968.6,146.1z
				 M968.6,152.7h-1.3c-0.4,0-0.7,0.3-0.7,0.7v2.7c0,0.5-0.3,1-0.8,1.2l-8.7,3.8c-0.7,0.3-1.2,1-1.2,1.8v2.7c0,0.3,0.2,0.6,0.5,0.7
				c2.5,0.6,4,3.2,3.3,5.7c-0.6,2.5-3.2,4-5.7,3.3c-2.5-0.6-4-3.2-3.3-5.7c0.4-1.6,1.7-2.9,3.3-3.3c0.3-0.1,0.5-0.4,0.5-0.7v-0.7
				c0-0.8-0.5-1.5-1.2-1.8l-8.7-3.8c-0.5-0.2-0.8-0.7-0.8-1.2v-2.9c0-0.3-0.2-0.5-0.4-0.6c-1.7-0.6-2.6-2.5-2-4.3
				c0.6-1.7,2.5-2.6,4.3-2c1.7,0.6,2.6,2.5,2,4.3c-0.3,0.9-1.1,1.7-2,2c-0.3,0.1-0.4,0.3-0.4,0.6v1.6c0,0.8,0.5,1.5,1.2,1.8l7.2,3.2
				c0.3,0.1,0.7,0,0.9-0.3c0-0.1,0.1-0.2,0.1-0.3v-15.7c0-0.4-0.3-0.7-0.7-0.7h-2.2l3.5-6l3.5,6h-2.2c-0.4,0-0.7,0.3-0.7,0.7v13.7
				c0,0.4,0.3,0.7,0.7,0.7c0.1,0,0.2,0,0.3-0.1l7.2-3.2c0.7-0.3,1.2-1,1.2-1.8v-1.3c0-0.4-0.3-0.7-0.7-0.7h-1.3v-5.3h5.3
				L968.6,152.7L968.6,152.7z"/>
		</g>
	</g>
</g>
<g>
	<path d="M750.8,7.8c0.4,0.3,0.9,0.3,1.3-0.1c2.2-2.6,5.5-4.1,8.9-4.1c3.7,0,7.2,1.7,9.4,4.7c0.2,0.2,0.4,0.4,0.7,0.4
		c0.2,0,0.4-0.1,0.5-0.2c0.4-0.3,0.5-0.9,0.2-1.3c-1.2-1.7-2.8-3-4.7-4s-4-1.5-6.2-1.5c-3.9,0-7.7,1.7-10.2,4.7
		C750.4,6.9,750.4,7.4,750.8,7.8z"/>
	<path d="M765.4,13.7c0.2,0.2,0.4,0.4,0.7,0.4c0.2,0,0.4-0.1,0.5-0.2c0.4-0.3,0.5-0.9,0.2-1.3c-1.4-1.9-3.6-3-5.9-3
		c-2.2,0-4.2,0.9-5.6,2.6c-0.3,0.4-0.3,0.9,0.1,1.3c0.4,0.3,0.9,0.3,1.3-0.1c1.1-1.2,2.6-2,4.3-2C762.7,11.5,764.3,12.3,765.4,13.7z
		"/>
	<path d="M768,10.9c0.2,0.2,0.4,0.4,0.7,0.4c0.2,0,0.4-0.1,0.5-0.2c0.4-0.3,0.5-0.9,0.2-1.3c-2-2.7-5.2-4.3-8.5-4.3
		c-3.1,0-6,1.3-8,3.7c-0.3,0.4-0.3,0.9,0.1,1.3c0.4,0.3,0.9,0.3,1.3-0.1c1.7-1.9,4.1-3.1,6.7-3.1C763.7,7.4,766.3,8.7,768,10.9z"/>
	<path d="M780.1,22.3V10.1c0-1.5-1.2-2.7-2.7-2.7s-2.7,1.2-2.7,2.7v12.2h-27.1V10.1c0-1.5-1.2-2.7-2.7-2.7s-2.7,1.2-2.7,2.7v12.2
		c-2.2,0.4-3.8,2.3-3.8,4.6V34c0,2.5,1.9,4.5,4.3,4.7v2.1c0,0.5,0.4,0.9,0.9,0.9h6.3c0.5,0,0.9-0.4,0.9-0.9v-2.1h6.9
		c0.5,0,0.9-0.4,0.9-0.9s-0.4-0.9-0.9-0.9h-14.6c-1.6,0-2.9-1.3-2.9-2.9v-7c0-1.6,1.3-2.9,2.9-2.9h36.4c1.6,0,2.9,1.3,2.9,2.9v7.1
		c0,1.6-1.3,2.9-2.9,2.9h-14.6c-0.5,0-0.9,0.4-0.9,0.9s0.4,0.9,0.9,0.9h7.4v2.1c0,0.5,0.4,0.9,0.9,0.9h6.3c0.5,0,0.9-0.4,0.9-0.9
		v-2.2c2.2-0.4,3.8-2.3,3.8-4.6V27C784.3,24.6,782.5,22.6,780.1,22.3z M749.1,40h-4.5v-1.2h4.5V40z M744.1,22.3V10.1
		c0-0.5,0.4-0.9,0.9-0.9s0.9,0.4,0.9,0.9v12.2H744.1z M776.5,22.3V10.1c0-0.5,0.4-0.9,0.9-0.9s0.9,0.4,0.9,0.9v12.2H776.5z
		 M774.2,40v-1.2h4.5V40H774.2z"/>
	<path d="M744.3,26.3c-0.5,0-0.9,0.4-0.9,0.9v6c0,0.5,0.4,0.9,0.9,0.9h7.2c0.5,0,0.9-0.4,0.9-0.9v-6c0-0.5-0.4-0.9-0.9-0.9
		C751.5,26.3,744.3,26.3,744.3,26.3z M750.6,32.3h-5.4V28h5.4V32.3z"/>
	<path d="M771.9,28h6.8c0.5,0,0.9-0.4,0.9-0.9s-0.4-0.9-0.9-0.9h-6.8c-0.5,0-0.9,0.4-0.9,0.9S771.4,28,771.9,28z"/>
	<path d="M759.5,26.3h-4c-0.5,0-0.9,0.4-0.9,0.9v6c0,0.5,0.4,0.9,0.9,0.9h4c0.5,0,0.9-0.4,0.9-0.9v-6
		C760.4,26.7,760,26.3,759.5,26.3z M756.4,28h2.2v1.2h-2.2V28z M756.4,32.3V31h2.2v1.2L756.4,32.3L756.4,32.3z"/>
	<path d="M771.9,31h6.8c0.5,0,0.9-0.4,0.9-0.9s-0.4-0.9-0.9-0.9h-6.8c-0.5,0-0.9,0.4-0.9,0.9S771.4,31,771.9,31z"/>
	<path d="M771.9,34h6.8c0.5,0,0.9-0.4,0.9-0.9s-0.4-0.9-0.9-0.9h-6.8c-0.5,0-0.9,0.4-0.9,0.9S771.4,34,771.9,34z"/>
	<path d="M767.9,33.2v-6c0-0.5-0.4-0.9-0.9-0.9h-4c-0.5,0-0.9,0.4-0.9,0.9v6c0,0.5,0.4,0.9,0.9,0.9h4
		C767.5,34,767.9,33.6,767.9,33.2z M763.9,28h2.2v1.2h-2.2V28z M763.9,32.3V31h2.2v1.2L763.9,32.3L763.9,32.3z"/>
	<path d="M757.8,17.1c0,1.7,1.4,3.2,3.2,3.2s3.2-1.4,3.2-3.2s-1.4-3.2-3.2-3.2S757.8,15.3,757.8,17.1z M762.3,17.1
		c0,0.8-0.6,1.4-1.4,1.4c-0.8,0-1.4-0.6-1.4-1.4s0.6-1.4,1.4-1.4C761.7,15.7,762.3,16.3,762.3,17.1z"/>
	<path d="M761.4,37L761.4,37c-0.5,0-0.9,0.4-0.9,0.9s0.4,0.9,0.9,0.9l0,0c0.5,0,0.9-0.4,0.9-0.9C762.3,37.4,761.9,37,761.4,37z"/>
</g>
<g>
	<path class="st1" d="M37.3,230.4v-16.9c0-0.5-0.4-0.8-0.8-0.8H4.8c-0.5,0-0.8,0.4-0.8,0.8v16.9c0,0.5,0.4,0.8,0.8,0.8h31.7
		C37,231.2,37.3,230.8,37.3,230.4z M35.7,229.5H5.6v-15.2h30.1V229.5z"/>
	<path class="st1" d="M19.8,233v0.7c0,0.5,0.4,0.8,0.8,0.8c0.5,0,0.8-0.4,0.8-0.8V233c0-0.5-0.4-0.8-0.8-0.8
		C20.2,232.2,19.8,232.6,19.8,233z"/>
	<path class="st1" d="M51.2,236.9c0-2.8-2.3-5.1-5.1-5.1s-5.1,2.3-5.1,5.1s2.3,5.1,5.1,5.1C48.9,241.9,51.2,239.7,51.2,236.9z
		 M42.7,236.9c0-1.9,1.5-3.4,3.4-3.4s3.4,1.5,3.4,3.4s-1.5,3.4-3.4,3.4C44.2,240.2,42.7,238.7,42.7,236.9z"/>
	<path class="st1" d="M41.1,218.4c0,0.5,0.4,0.8,0.8,0.8h8.3c0.5,0,0.8-0.4,0.8-0.8c0-0.5-0.4-0.8-0.8-0.8h-8.3
		C41.5,217.6,41.1,217.9,41.1,218.4z"/>
	<path class="st1" d="M48.3,214.3c0.5,0,0.8-0.4,0.8-0.8s-0.4-0.8-0.8-0.8h-4.4c-0.5,0-0.8,0.4-0.8,0.8s0.4,0.8,0.8,0.8H48.3z"/>
	<path class="st1" d="M54.8,206.3H37.4c-1.6,0-3,1.2-3.2,2.7H13.4c-0.5,0-0.8,0.4-0.8,0.8c0,0.5,0.4,0.8,0.8,0.8h24.2
		c0.8,0,1.5,0.7,1.5,1.5V234c0,0.8-0.7,1.5-1.5,1.5H3.7c-0.8,0-1.5-0.7-1.5-1.5v-21.9c0-0.9,0.7-1.5,1.5-1.5h6.6
		c0.5,0,0.8-0.4,0.8-0.8c0-0.5-0.4-0.8-0.8-0.8H3.7c-1.8,0-3.2,1.4-3.2,3.2v21.9c0,1.8,1.4,3.2,3.2,3.2H12v2.8
		c-2.2,0.2-3.8,2-3.8,4.2c0,1,0.8,1.8,1.8,1.8h21.4c1,0,1.8-0.8,1.8-1.8c0-2.2-1.7-4-3.8-4.2v-2.8h4.9v5.6c0,1.8,1.4,3.2,3.2,3.2
		h4.9c0.5,0,0.8-0.4,0.8-0.8c0-0.5-0.4-0.8-0.8-0.8h-4.9c-0.8,0-1.5-0.7-1.5-1.5v-5.6h1.8c1.8,0,3.2-1.4,3.2-3.2v-6.5h13.8
		c0.5,0,0.8-0.4,0.8-0.8v-2.8c0-0.5-0.4-0.8-0.8-0.8h-14v-11c0-1.8-1.4-3.2-3.2-3.2h-1.7c0.2-0.6,0.8-1.1,1.5-1.1h17.5
		c0.8,0,1.5,0.7,1.5,1.5V243c0,0.8-0.7,1.5-1.5,1.5h-9.4c-0.5,0-0.8,0.4-0.8,0.8c0,0.5,0.4,0.8,0.8,0.8h9.4c1.8,0,3.2-1.4,3.2-3.2
		v-33.5C58.1,207.8,56.6,206.3,54.8,206.3z M31.5,244.5c0,0.1-0.1,0.1-0.1,0.1c-22.6-0.1-21.5,0.1-21.5-0.1c0-1.4,1.2-2.6,2.6-2.6
		H29C30.3,241.9,31.5,243.1,31.5,244.5z M27.6,240.3h-14v-2.8h14V240.3z M53.7,225v1.1H40.8V225H53.7z"/>
</g>
<g>
	<g>
		<g>
			<path class="st1" d="M151.6,239.6c-0.1-0.1-0.1-0.1-0.2-0.1H91.1c-0.1,0-0.2,0-0.2,0.1c-0.1,0.1-0.1,0.2-0.1,0.2
				c0,0.1,0.9,5.6,8,5.6h44.9c7.1,0,8-5.6,8-5.6C151.7,239.8,151.7,239.7,151.6,239.6z M125.8,243.6h-9.1v-2.1h9.1V243.6z"/>
			<path class="st1" d="M97.3,237.4h47.8c0.7,0,1.3-0.6,1.3-1.3v-29.3c0-0.7-0.6-1.3-1.3-1.3H97.3c-0.7,0-1.3,0.6-1.3,1.3v29.3
				C96.1,236.8,96.7,237.4,97.3,237.4z M100.5,209.9H142V233h-41.5V209.9z"/>
		</g>
	</g>
</g>
<g>
	<g>
		<path class="st1" d="M228.3,207.9v3c-0.8,0.5-1.4,1.5-1.4,2.5s0.5,2,1.4,2.5v28.8h-36.8v-28.8c0.8-0.5,1.4-1.4,1.4-2.5
			c0-1-0.5-2-1.4-2.5v-3h28.4c0.5,0.8,1.5,1.4,2.5,1.4s2-0.5,2.5-1.4H228.3 M228.3,206.3h-4.6c0,0.8-0.6,1.4-1.4,1.4
			c-0.8,0-1.4-0.6-1.4-1.4h-29.5c-0.9,0-1.6,0.7-1.6,1.6v4.1l0,0c0.8,0,1.4,0.6,1.4,1.4c0,0.8-0.6,1.4-1.4,1.4l0,0v29.9
			c0,0.9,0.7,1.6,1.6,1.6h36.8c0.9,0,1.6-0.7,1.6-1.6v-29.9c-0.8,0-1.4-0.6-1.4-1.4c0-0.8,0.6-1.4,1.4-1.4v-4.1
			C229.9,207.1,229.2,206.3,228.3,206.3L228.3,206.3z M222.2,212.7c0.9,0,1.6,0.7,1.6,1.6v24.1c0,0.9-0.7,1.6-1.6,1.6h-24.1
			c-0.9,0-1.6-0.7-1.6-1.6v-24.1c0-0.9,0.7-1.6,1.6-1.6H222.2 M222.2,211.1h-24.1c-1.8,0-3.2,1.4-3.2,3.2v24.1
			c0,1.8,1.4,3.2,3.2,3.2h24.1c1.8,0,3.2-1.4,3.2-3.2v-24.1C225.4,212.5,224,211.1,222.2,211.1L222.2,211.1z M205.7,229.7
			c-0.4,0.3-0.8,0.6-1.3,0.7c-0.5,0.2-0.9,0.3-1.4,0.3c-0.4,0-0.7,0-1.1-0.1c-0.4-0.1-0.7-0.2-1-0.4s-0.6-0.4-0.8-0.7
			c-0.3-0.3-0.5-0.5-0.7-0.8s-0.3-0.6-0.4-1c-0.1-0.4-0.1-0.7-0.1-1.1c0-0.4,0-0.8,0.1-1.1c0.1-0.4,0.2-0.7,0.4-1s0.4-0.6,0.7-0.8
			s0.5-0.5,0.8-0.7s0.6-0.3,1-0.4c0.4-0.1,0.7-0.1,1.1-0.1c0.5,0,1,0.1,1.4,0.3c0.5,0.2,0.9,0.4,1.3,0.7l-0.9,1.4
			c-0.2-0.3-0.5-0.5-0.8-0.6s-0.7-0.2-1-0.2c-0.4,0-0.7,0.1-1,0.2c-0.3,0.1-0.6,0.3-0.8,0.5s-0.4,0.5-0.6,0.8
			c-0.1,0.3-0.2,0.6-0.2,1s0.1,0.7,0.2,1c0.1,0.3,0.3,0.6,0.6,0.8c0.2,0.2,0.5,0.4,0.8,0.6c0.3,0.1,0.6,0.2,1,0.2s0.7-0.1,1-0.2
			c0.3-0.1,0.6-0.3,0.8-0.6L205.7,229.7z M208.3,230.5h-1.6v-8.1h3.2c0.3,0,0.6,0,0.9,0.1c0.3,0.1,0.5,0.2,0.8,0.3
			c0.2,0.1,0.5,0.3,0.7,0.5s0.4,0.4,0.5,0.7c0.1,0.2,0.2,0.5,0.3,0.8s0.1,0.6,0.1,0.9c0,0.4-0.1,0.9-0.3,1.2c-0.2,0.4-0.4,0.7-0.7,1
			s-0.6,0.5-1,0.7s-0.8,0.3-1.2,0.3h-1.6L208.3,230.5L208.3,230.5L208.3,230.5z M208.3,224.1v3.2h1.6c0.2,0,0.4,0,0.6-0.1
			c0.2-0.1,0.4-0.2,0.5-0.3s0.3-0.3,0.3-0.5c0.1-0.2,0.1-0.4,0.1-0.6c0-0.2,0-0.4-0.1-0.6c-0.1-0.2-0.2-0.4-0.3-0.5
			s-0.3-0.3-0.5-0.3c-0.2-0.1-0.4-0.1-0.6-0.1h-1.6V224.1z M220.4,227.3c0,0.4-0.1,0.9-0.3,1.3c-0.2,0.4-0.4,0.7-0.7,1
			s-0.6,0.5-1,0.7s-0.8,0.3-1.3,0.3c-0.4,0-0.9-0.1-1.3-0.3c-0.4-0.2-0.7-0.4-1-0.7s-0.5-0.6-0.7-1s-0.3-0.8-0.3-1.3v-4.8h1.6v4.8
			c0,0.2,0,0.4,0.1,0.6c0.1,0.2,0.2,0.4,0.3,0.5s0.3,0.3,0.5,0.3c0.2,0.1,0.4,0.1,0.6,0.1c0.2,0,0.4,0,0.6-0.1
			c0.2-0.1,0.4-0.2,0.5-0.3s0.3-0.3,0.3-0.5c0.1-0.2,0.1-0.4,0.1-0.6v-4.8h1.6L220.4,227.3L220.4,227.3z"/>
	</g>
</g>
<g>
	<g>
		<path class="st1" d="M312.4,206.1L312.4,206.1l-0.2-0.1h-42.3h-0.2v0.1c-1.4,0.1-2.4,1.2-2.6,2.5v0.2v27.9c0,0.5,0.1,1,0.4,1.4
			c0.5,1,1.3,1.4,2.4,1.4h15.4v3.9h-2.9c-0.7,0-1.3,0.6-1.3,1.3s0.6,1.3,1.3,1.3h17.3c0.7,0,1.3-0.6,1.3-1.3s-0.6-1.3-1.3-1.3h-2.9
			v-3.9h15.4c1.1,0,1.9-0.5,2.4-1.4c0.2-0.4,0.4-0.9,0.4-1.4v-27.9v-0.2C314.8,207.3,313.7,206.2,312.4,206.1z M312.4,208.9v27.9
			c0,0.2-0.1,0.2-0.2,0.2h-42.3c-0.2,0-0.2-0.1-0.2-0.2v-27.9v-0.2h42.7V208.9L312.4,208.9z"/>
	</g>
</g>
<g>
	<title>Keyboard</title>
	<path class="st1" d="M398.1,217.2h-19.3v-1.4c0-2.2-1.8-4-4-4l0,0h-11.3c-1.3,0-2.3-1-2.3-2.3s1-2.3,2.3-2.3h9.7
		c0.5,0,0.9-0.4,0.9-0.9s-0.4-0.9-0.9-0.9h-9.7c-2.2,0-4,1.8-4,4s1.8,4,4,4h11.3c1.3,0,2.3,1,2.3,2.3v1.4h-19.3
		c-2.8,0-5.1,2.2-5.1,5.1l0,0v18c0,2.8,2.3,5.2,5.1,5.2h40.3c2.8,0,5.1-2.4,5.1-5.2v-18C403.3,219.5,401,217.2,398.1,217.2
		C398.2,217.2,398.2,217.2,398.1,217.2z M401.6,240.4c0,1.9-1.5,3.4-3.4,3.4h-40.3c-1.9,0-3.4-1.5-3.4-3.4v-18
		c0-1.9,1.5-3.4,3.4-3.4h40.3c1.9,0,3.4,1.5,3.4,3.4V240.4z"/>
	<path class="st1" d="M381.1,229c0-0.5-0.4-0.9-0.9-0.9h-4.6c-0.5,0-0.9,0.4-0.9,0.9v4.6c0,0.5,0.4,0.9,0.9,0.9h4.6
		c0.5,0,0.9-0.4,0.9-0.9V229z M376.5,229.9h3v2.9h-3V229.9z"/>
	<path class="st1" d="M372.5,229c0-0.5-0.4-0.9-0.9-0.9H367c-0.5,0-0.9,0.4-0.9,0.9v4.6c0,0.5,0.4,0.9,0.9,0.9h4.6
		c0.5,0,0.9-0.4,0.9-0.9V229z M367.9,229.9h3v2.9h-3V229.9z"/>
	<path class="st1" d="M363.9,229c0-0.5-0.4-0.9-0.9-0.9h-4.6c-0.5,0-0.9,0.4-0.9,0.9v4.6c0,0.5,0.4,0.9,0.9,0.9h4.6
		c0.5,0,0.9-0.4,0.9-0.9V229z M362.3,232.8h-3v-2.9h3V232.8z"/>
	<path class="st1" d="M389.7,229c0-0.5-0.4-0.9-0.9-0.9h-4.6c-0.5,0-0.9,0.4-0.9,0.9v4.6c0,0.5,0.4,0.9,0.9,0.9h4.6
		c0.5,0,0.9-0.4,0.9-0.9V229z M388.1,232.8h-3v-2.9h3V232.8z"/>
	<path class="st1" d="M398.3,229c0-0.5-0.4-0.9-0.9-0.9h-4.6c-0.5,0-0.9,0.4-0.9,0.9v4.6c0,0.5,0.4,0.9,0.9,0.9h4.6
		c0.5,0,0.9-0.4,0.9-0.9V229z M396.6,232.8h-3v-2.9h3V232.8z"/>
	<path class="st1" d="M381.1,221.5c0-0.5-0.4-0.9-0.9-0.9h-4.6c-0.5,0-0.9,0.4-0.9,0.9v4.6c0,0.5,0.4,0.9,0.9,0.9h4.6
		c0.5,0,0.9-0.4,0.9-0.9V221.5z M376.5,222.4h3v2.9h-3V222.4z"/>
	<path class="st1" d="M372.5,221.5c0-0.5-0.4-0.9-0.9-0.9H367c-0.5,0-0.9,0.4-0.9,0.9v4.6c0,0.5,0.4,0.9,0.9,0.9h4.6
		c0.5,0,0.9-0.4,0.9-0.9V221.5z M367.9,222.4h3v2.9h-3V222.4z"/>
	<path class="st1" d="M363.9,221.5c0-0.5-0.4-0.9-0.9-0.9h-4.6c-0.5,0-0.9,0.4-0.9,0.9v4.6c0,0.5,0.4,0.9,0.9,0.9h4.6
		c0.5,0,0.9-0.4,0.9-0.9V221.5z M362.3,225.3h-3v-2.9h3V225.3z"/>
	<path class="st1" d="M389.7,221.5c0-0.5-0.4-0.9-0.9-0.9h-4.6c-0.5,0-0.9,0.4-0.9,0.9v4.6c0,0.5,0.4,0.9,0.9,0.9h4.6
		c0.5,0,0.9-0.4,0.9-0.9V221.5z M388.1,225.3h-3v-2.9h3V225.3z"/>
	<path class="st1" d="M398.3,221.5c0-0.5-0.4-0.9-0.9-0.9h-4.6c-0.5,0-0.9,0.4-0.9,0.9v4.6c0,0.5,0.4,0.9,0.9,0.9h4.6
		c0.5,0,0.9-0.4,0.9-0.9V221.5z M396.6,225.3h-3v-2.9h3V225.3z"/>
	<path class="st1" d="M363.9,236.5c0-0.5-0.4-0.9-0.9-0.9h-4.6c-0.5,0-0.9,0.4-0.9,0.9v4.6c0,0.5,0.4,0.9,0.9,0.9h4.6
		c0.5,0,0.9-0.4,0.9-0.9V236.5z M362.3,240.3h-3v-2.9h3V240.3z"/>
	<path class="st1" d="M389.7,236.5c0-0.5-0.4-0.9-0.9-0.9H367c-0.5,0-0.9,0.4-0.9,0.9v4.6c0,0.5,0.4,0.9,0.9,0.9h21.8
		c0.5,0,0.9-0.4,0.9-0.9L389.7,236.5L389.7,236.5z M388.1,240.3h-20.2v-2.9h20.2V240.3z"/>
	<path class="st1" d="M398.3,236.5c0-0.5-0.4-0.9-0.9-0.9h-4.6c-0.5,0-0.9,0.4-0.9,0.9v4.6c0,0.5,0.4,0.9,0.9,0.9h4.6
		c0.5,0,0.9-0.4,0.9-0.9V236.5z M396.6,240.3h-3v-2.9h3V240.3z"/>
</g>
<g>
	<path class="st1" d="M449.2,205.3c-6.9,0-12.5,5.6-12.5,12.5v15.1c0,6.9,5.6,12.5,12.5,12.5s12.5-5.6,12.5-12.5v-15.1
		C461.7,210.8,456.1,205.3,449.2,205.3z M460.2,217.7v0.2c-3.2,1.7-6.8,2.6-10.5,2.7v-4.2c1.1-0.2,1.8-1.2,1.8-2.3V211
		c0-1.1-0.8-2.1-1.8-2.3v-2C455.5,207,460.2,211.8,460.2,217.7z M449.2,209.7c0.7,0,1.3,0.6,1.3,1.3v3.1c0,0.7-0.6,1.3-1.3,1.3
		s-1.3-0.6-1.3-1.3V211C447.9,210.3,448.5,209.7,449.2,209.7z M448.7,206.8v2c-1.1,0.2-1.8,1.2-1.8,2.3v3.1c0,1.1,0.8,2.1,1.8,2.3
		v4.2c-3.7-0.1-7.3-1-10.5-2.7v-0.2C438.2,211.8,442.9,207,448.7,206.8z M449.2,243.8c-6.1,0-11-4.9-11-11V219
		c3.4,1.7,7.2,2.6,11,2.6s7.6-0.9,11-2.6v13.7C460.2,238.8,455.3,243.8,449.2,243.8z"/>
</g>
<g>
	<g>
		<path class="st1" d="M527.9,206h-28.7c-3.1,0-5.6,2.5-5.6,5.6v28.7c0,3.1,2.5,5.6,5.6,5.6h28.7c3.1,0,5.6-2.5,5.6-5.6v-28.7
			C533.5,208.5,531,206,527.9,206z M530.8,240.3c0,1.6-1.3,3-3,3h-28.7c-1.6,0-3-1.3-3-3v-28.7c0-1.6,1.3-3,3-3h3.8
			c0.4,4.2,3.9,7.5,8.3,7.5h3.6c2.8,0,5,2.3,5,5v0.4c0.3,0,0.7-0.1,1-0.1s0.7,0,1,0.1v-0.4c0-3.9-3.2-7.1-7.1-7.1h-3.6
			c-3.2,0-5.8-2.4-6.2-5.5h22.9c1.6,0,3,1.3,3,3L530.8,240.3L530.8,240.3z"/>
		<path class="st1" d="M520.8,222.9c-3.5,0-6.3,2.8-6.3,6.3v4.6c0,3.5,2.8,6.3,6.3,6.3s6.3-2.8,6.3-6.3v-4.6
			C527.1,225.7,524.3,222.9,520.8,222.9z M522.1,229.4c0,0.7-0.6,1.3-1.3,1.3s-1.3-0.6-1.3-1.3v-3.3c0-0.7,0.6-1.3,1.3-1.3
			s1.3,0.6,1.3,1.3V229.4z"/>
	</g>
</g>
<g>
	<g>
		<g>
			<path class="st1" d="M589.7,204.8c-12.5,0-22.8,10.2-22.8,22.7v10.7c0,2.2,1.8,4,4,4h1.3v-13.3h-1.3c-0.5,0-0.9,0.1-1.3,0.2v-1.6
				c0-11,9.1-20,20.1-20s20.1,9,20.1,20v1.6c-0.4-0.1-0.9-0.2-1.3-0.2h-1.3v13.3h1.3c2.2,0,4-1.8,4-4v-10.7
				C612.5,215,602.2,204.8,589.7,204.8z"/>
		</g>
	</g>
	<g>
		<g>
			<path class="st1" d="M578.9,226.2h-1.3c-1.5,0-2.7,1.2-2.7,2.7v13.3c0,1.5,1.2,2.7,2.7,2.7h1.3c0.7,0,1.3-0.6,1.3-1.3v-16
				C580.3,226.8,579.7,226.2,578.9,226.2z"/>
		</g>
	</g>
	<g>
		<g>
			<path class="st1" d="M601.8,226.2h-1.3c-0.7,0-1.3,0.6-1.3,1.3v16c0,0.7,0.6,1.3,1.3,1.3h1.3c1.5,0,2.7-1.2,2.7-2.7v-13.3
				C604.5,227.4,603.3,226.2,601.8,226.2z"/>
		</g>
	</g>
</g>
<g>
	<g transform="translate(599 596)">
		<g>
			<g>
				<path class="st1" d="M102-365.7v-16.7c0-0.5-0.4-0.8-0.8-0.8H87.9c-0.5,0-0.8,0.4-0.8,0.8v16.7c0,0.5,0.4,0.8,0.8,0.8v1.7h-4.2
					v-1.7c0.5,0,0.8-0.4,0.8-0.8V-389c0-0.5-0.4-0.8-0.8-0.8H70.4c-0.5,0-0.8,0.4-0.8,0.8v23.3c0,0.5,0.4,0.8,0.8,0.8v1.7h-4.2v-1.7
					c0.5,0,0.8-0.4,0.8-0.8v-16.7c0-0.5-0.4-0.8-0.8-0.8H52.9c-0.5,0-0.8,0.4-0.8,0.8v16.7c0,0.5,0.4,0.8,0.8,0.8v1.7
					c-0.5,0-0.8,0.4-0.8,0.8v11.7c0,0.5,0.4,0.8,0.8,0.8h48.3c0.5,0,0.8-0.4,0.8-0.8v-11.7c0-0.5-0.4-0.8-0.8-0.8v-1.7
					C101.7-364.9,102-365.2,102-365.7z M59.5-379.9c2.3,0,4.2,1.9,4.2,4.2c0,2.3-1.9,4.2-4.2,4.2s-4.2-1.9-4.2-4.2
					C55.4-378,57.2-379.9,59.5-379.9z M62-369c0,0.5-0.4,0.8-0.8,0.8h-3.3c-0.5,0-0.8-0.4-0.8-0.8s0.4-0.8,0.8-0.8h3.3
					C61.7-369.9,62-369.5,62-369z M58.7-356.5v2.5c0,0.5-0.4,0.8-0.8,0.8S57-353.6,57-354v-2.5c-0.5,0-0.8-0.4-0.8-0.8
					s0.4-0.8,0.8-0.8v-0.8c0-0.5,0.4-0.8,0.8-0.8s0.8,0.4,0.8,0.8v0.8c0.5,0,0.8,0.4,0.8,0.8C59.5-356.9,59.2-356.5,58.7-356.5z
					 M63.7-354.9v0.8c0,0.5-0.4,0.8-0.8,0.8S62-353.6,62-354v-0.8c-0.5,0-0.8-0.4-0.8-0.8s0.4-0.8,0.8-0.8v-2.5
					c0-0.5,0.4-0.8,0.8-0.8s0.8,0.4,0.8,0.8v2.5c0.5,0,0.8,0.4,0.8,0.8S64.2-354.9,63.7-354.9z M64.5-363.2h-10v-1.7h10V-363.2z
					 M68.7-354c0,0.5-0.4,0.8-0.8,0.8S67-353.6,67-354c-0.5,0-0.8-0.4-0.8-0.8s0.4-0.8,0.8-0.8v-3.3c0-0.5,0.4-0.8,0.8-0.8
					s0.8,0.4,0.8,0.8v3.3c0.5,0,0.8,0.4,0.8,0.8C69.5-354.4,69.2-354,68.7-354z M94.5-379.9c2.3,0,4.2,1.9,4.2,4.2
					c0,2.3-1.9,4.2-4.2,4.2c-2.3,0-4.2-1.9-4.2-4.2C90.4-378,92.2-379.9,94.5-379.9z M97-369c0,0.5-0.4,0.8-0.8,0.8h-3.3
					c-0.5,0-0.8-0.4-0.8-0.8s0.4-0.8,0.8-0.8h3.3C96.7-369.9,97-369.5,97-369z M77-386.5c2.3,0,4.2,1.9,4.2,4.2
					c0,2.3-1.9,4.2-4.2,4.2s-4.2-1.9-4.2-4.2C72.9-384.7,74.7-386.5,77-386.5z M77-376.5c2.3,0,4.2,1.9,4.2,4.2
					c0,2.3-1.9,4.2-4.2,4.2s-4.2-1.9-4.2-4.2C72.9-374.7,74.7-376.5,77-376.5z M72-364.9h10v1.7H72V-364.9z M73.7-355.7v1.7
					c0,0.5-0.4,0.8-0.8,0.8S72-353.6,72-354v-1.7c-0.5,0-0.8-0.4-0.8-0.8s0.4-0.8,0.8-0.8v-1.7c0-0.5,0.4-0.8,0.8-0.8
					s0.8,0.4,0.8,0.8v1.7c0.5,0,0.8,0.4,0.8,0.8C74.5-356.1,74.2-355.7,73.7-355.7z M89.5-354c0,0.5-0.4,0.8-0.8,0.8H77
					c-0.5,0-0.8-0.4-0.8-0.8v-5c0-0.5,0.4-0.8,0.8-0.8h11.7c0.5,0,0.8,0.4,0.8,0.8V-354L89.5-354z M94.5-353.2
					c-1.8,0-3.3-1.5-3.3-3.3s1.5-3.3,3.3-3.3s3.3,1.5,3.3,3.3S96.4-353.2,94.5-353.2z M99.5-363.2h-10v-1.7h10V-363.2z"/>
				<path class="st1" d="M94.5-358.2c-0.9,0-1.7,0.7-1.7,1.7c0,0.9,0.7,1.7,1.7,1.7c0.9,0,1.7-0.7,1.7-1.7
					C96.2-357.4,95.5-358.2,94.5-358.2z"/>
				<rect x="77.9" y="-358.2" class="st1" width="10" height="3.3"/>
				<path class="st1" d="M94.5-373.2c1.4,0,2.5-1.1,2.5-2.5s-1.1-2.5-2.5-2.5s-2.5,1.1-2.5,2.5S93.2-373.2,94.5-373.2z M94.5-376.5
					c0.5,0,0.8,0.4,0.8,0.8c0,0.5-0.4,0.8-0.8,0.8c-0.5,0-0.8-0.4-0.8-0.8S94.1-376.5,94.5-376.5z"/>
				<path class="st1" d="M77-369.9c1.4,0,2.5-1.1,2.5-2.5s-1.1-2.5-2.5-2.5s-2.5,1.1-2.5,2.5S75.7-369.9,77-369.9z M77-373.2
					c0.5,0,0.8,0.4,0.8,0.8s-0.4,0.8-0.8,0.8s-0.8-0.4-0.8-0.8S76.6-373.2,77-373.2z"/>
				<path class="st1" d="M77-379.9c1.4,0,2.5-1.1,2.5-2.5s-1.1-2.5-2.5-2.5s-2.5,1.1-2.5,2.5S75.7-379.9,77-379.9z M77-383.2
					c0.5,0,0.8,0.4,0.8,0.8s-0.4,0.8-0.8,0.8s-0.8-0.4-0.8-0.8S76.6-383.2,77-383.2z"/>
				<path class="st1" d="M59.5-373.2c1.4,0,2.5-1.1,2.5-2.5s-1.1-2.5-2.5-2.5s-2.5,1.1-2.5,2.5S58.2-373.2,59.5-373.2z M59.5-376.5
					c0.5,0,0.8,0.4,0.8,0.8c0,0.5-0.4,0.8-0.8,0.8s-0.8-0.4-0.8-0.8S59.1-376.5,59.5-376.5z"/>
			</g>
		</g>
	</g>
</g>
<g>
	<g>
		<path class="st1" d="M764.7,213.3c0.1-0.6-0.1-1.3-0.6-1.7l-2.4-1.7v-1.2c0-1.2-1.1-2.2-2.5-2.2h-5.5c-1.4,0-2.5,1-2.5,2.2v1.2
			l-2.4,1.7c-0.5,0.4-0.8,1-0.6,1.7l0.7,3.3l0,0c-0.1,0.3-0.1,0.7-0.2,1l-0.2,1.6c-0.1,0.8-0.2,1.7-0.2,2.5v6c0,1.1,0.9,2,2,2h12.5
			c1.1,0,2-0.9,2-2v-6c0-0.8-0.1-1.7-0.2-2.5l-0.2-1.6c0-0.3-0.1-0.7-0.2-1l0,0L764.7,213.3z M759.6,210.3l-0.2,0.8
			c0,0.1-0.2,0.3-0.3,0.3h-5.5c-0.2,0-0.3-0.1-0.3-0.3l-0.2-0.8c0-0.2,0.1-0.4,0.3-0.4h5.8C759.5,209.9,759.7,210.1,759.6,210.3z"/>
		<path class="st1" d="M759.2,206.5h-5.5c-0.4,0-0.8,0.1-1.2,0.2l1.5,3.2h4.8l1.5-3.2C760,206.6,759.6,206.5,759.2,206.5z"/>
		<path class="st1" d="M762.6,220.1l-0.2-1.6c0-0.3-0.1-0.6-0.2-0.9c-0.3-1.4-0.9-2.8-1.7-4l-0.1-0.1l0,0l0,0c0,0,0,0-0.1-0.1
			l-1.6-2H754l-1.7,2.1l0,0l-0.1,0.1l0,0c-0.8,1.2-1.4,2.6-1.7,4l0,0c-0.1,0.3-0.1,0.6-0.2,0.9l-0.2,1.6c-0.1,0.8-0.1,1.5-0.1,2.3
			v6.3c0,0.5,0.4,1,1,1h10.8c0.5,0,1-0.4,1-1v-6.3C762.8,221.6,762.7,220.8,762.6,220.1z"/>
		<path class="st1" d="M757.7,229.6h-2.6v-10.9c0-0.3,0.3-0.6,0.6-0.6h1.4c0.3,0,0.6,0.3,0.6,0.6V229.6z"/>
		<path class="st1" d="M762.6,230h-12.5c-1.3,0-2.3-1-2.3-2.3v-6c0-0.9,0.1-1.7,0.2-2.6l0.2-1.6c0-0.3,0.1-0.6,0.2-1l-0.7-3.2
			c-0.2-0.8,0.1-1.5,0.8-2l2.2-1.6v-1.1c0-1.4,1.3-2.5,2.9-2.5h5.5c1.6,0,2.9,1.1,2.9,2.5v1.1l2.2,1.6c0.6,0.5,0.9,1.2,0.8,2
			l-0.3-0.1l0.3,0.1l-0.7,3.2c0.1,0.3,0.1,0.6,0.2,1l0.2,1.6c0.1,0.8,0.2,1.7,0.2,2.6v6C764.9,228.9,763.9,230,762.6,230z
			 M749.1,216.5c0,0.1,0,0.1,0,0.2c-0.1,0.3-0.1,0.7-0.2,1l-0.2,1.6c-0.1,0.8-0.2,1.7-0.2,2.5v6c0,0.9,0.7,1.6,1.6,1.6h12.5
			c0.9,0,1.6-0.7,1.6-1.6v-6c0-0.8-0.1-1.7-0.2-2.5l-0.2-1.6c0-0.3-0.1-0.6-0.2-1c0-0.1,0-0.1,0-0.2l0.7-3.2c0.1-0.5-0.1-1-0.5-1.3
			l-2.4-1.7c-0.1-0.1-0.1-0.2-0.1-0.3v-1.2c0-1-1-1.8-2.2-1.8h-5.5c-1.2,0-2.2,0.8-2.2,1.8v1.2c0,0.1,0,0.2-0.1,0.3l-2.4,1.7
			c-0.4,0.3-0.6,0.8-0.5,1.3L749.1,216.5z M759.1,211.6h-5.5c-0.3,0-0.6-0.2-0.6-0.5l-0.2-0.8c0-0.2,0-0.4,0.1-0.6
			c0.1-0.2,0.3-0.2,0.5-0.2h5.8c0.2,0,0.4,0.1,0.5,0.2c0.1,0.2,0.2,0.4,0.1,0.6l-0.2,0.8C759.7,211.4,759.4,211.6,759.1,211.6z
			 M753.5,210.2l0.2,0.8h5.5l0.2-0.8H753.5z M759.6,210.3L759.6,210.3L759.6,210.3z"/>
		<path class="st1" d="M756.8,245.8H756c-0.1,0-0.3-0.1-0.3-0.3v-3.1c0-0.1,0.1-0.3,0.3-0.3h0.8c0.1,0,0.3,0.1,0.3,0.3v3.1
			C757,245.7,756.9,245.8,756.8,245.8z"/>
		<path class="st1" d="M756.8,246.2H756c-0.3,0-0.6-0.3-0.6-0.6v-3.1c0-0.3,0.3-0.6,0.6-0.6h0.8c0.3,0,0.6,0.3,0.6,0.6v3.1
			C757.4,245.9,757.1,246.2,756.8,246.2z M756.1,245.5h0.7v-3h-0.7V245.5z"/>
		<path class="st1" d="M755.7,235.9v8.1c0,0.3,0.3,0.6,0.6,0.6h0.1c0.3,0,0.6-0.3,0.6-0.6v-8.1H755.7z"/>
		<path class="st1" d="M756.4,244.9L756.4,244.9c-0.6,0-1-0.4-1-0.9v-8.1c0-0.2,0.1-0.3,0.3-0.3h1.3c0.2,0,0.3,0.1,0.3,0.3v8.1
			C757.4,244.5,757,244.9,756.4,244.9z M756.1,236.2v7.8c0,0.1,0.1,0.3,0.3,0.3h0.1c0.1,0,0.3-0.1,0.3-0.3v-7.8H756.1z"/>
		<path class="st1" d="M761.8,240.4c-0.3-0.4-0.8-0.6-1.3-0.6h-8.3c-0.5,0-1,0.2-1.3,0.6l-1.5,1.9c0.4,0.1,0.8,0.4,1,0.8l1.5-2
			c0.1-0.1,0.2-0.1,0.3-0.1h8.3c0.1,0,0.2,0,0.3,0.1l1.4,1.8c0.3-0.4,0.7-0.6,1.1-0.7L761.8,240.4z"/>
		<path class="st1" d="M768.2,226.6h-1.9c-0.4,0-0.7-0.3-0.7-0.7v-1c0-0.4,0.3-0.7,0.7-0.7h1.9c0.4,0,0.7,0.3,0.7,0.7v1
			C768.9,226.3,768.6,226.6,768.2,226.6z"/>
		<path class="st1" d="M746.5,226.6h-1.9c-0.4,0-0.7-0.3-0.7-0.7v-1c0-0.4,0.3-0.7,0.7-0.7h1.9c0.4,0,0.7,0.3,0.7,0.7v1
			C747.1,226.3,746.8,226.6,746.5,226.6z"/>
		<path class="st1" d="M750.7,244c0,1-0.8,1.8-1.8,1.8s-1.8-0.8-1.8-1.8s0.8-1.8,1.8-1.8S750.7,243,750.7,244z"/>
		<path class="st1" d="M749.7,244c0,0.5-0.4,0.8-0.8,0.8c-0.5,0-0.8-0.4-0.8-0.8c0-0.5,0.4-0.8,0.8-0.8S749.7,243.6,749.7,244z"/>
		<path class="st1" d="M765.4,244c0,1-0.8,1.8-1.8,1.8s-1.8-0.8-1.8-1.8s0.8-1.8,1.8-1.8C764.6,242.2,765.4,243,765.4,244z"/>
		<path class="st1" d="M764.5,244c0,0.5-0.4,0.8-0.8,0.8c-0.5,0-0.8-0.4-0.8-0.8c0-0.5,0.4-0.8,0.8-0.8S764.5,243.6,764.5,244z"/>
		<g>
			<path class="st1" d="M768.2,226.9h-1.9c-0.6,0-1-0.5-1-1v-1c0-0.6,0.5-1,1-1h1.9c0.6,0,1,0.5,1,1v1
				C769.2,226.5,768.8,226.9,768.2,226.9z M766.3,224.6c-0.2,0-0.3,0.2-0.3,0.4v1c0,0.2,0.2,0.4,0.3,0.4h1.9c0.2,0,0.3-0.2,0.3-0.4
				v-1c0-0.2-0.2-0.4-0.3-0.4H766.3z"/>
			<path class="st1" d="M746.5,226.9h-1.9c-0.6,0-1-0.5-1-1v-1c0-0.6,0.5-1,1-1h1.9c0.6,0,1,0.5,1,1v1
				C747.5,226.5,747,226.9,746.5,226.9z M744.5,224.6c-0.2,0-0.4,0.2-0.4,0.4v1c0,0.2,0.2,0.4,0.4,0.4h1.9c0.2,0,0.4-0.2,0.4-0.4v-1
				c0-0.2-0.2-0.4-0.4-0.4H744.5z"/>
			<path class="st1" d="M750.5,243.5C750.4,243.5,750.4,243.5,750.5,243.5c-0.1,0-0.2-0.1-0.3-0.2c-0.2-0.3-0.5-0.6-0.8-0.7
				c-0.1,0-0.2-0.1-0.2-0.2c0-0.1,0-0.2,0.1-0.3l1.5-1.9c0.4-0.5,0.9-0.8,1.6-0.8h8.3c0.6,0,1.2,0.3,1.6,0.8l1.5,1.9
				c0.1,0.1,0.1,0.2,0,0.3c0,0.1-0.1,0.2-0.2,0.2c-0.4,0.1-0.7,0.3-0.9,0.6c-0.1,0.1-0.2,0.1-0.3,0.1s-0.2,0-0.3-0.1l-1.4-1.8h-8.3
				l-1.5,2C750.6,243.4,750.6,243.5,750.5,243.5z M750,242.2c0.2,0.1,0.4,0.2,0.5,0.4l1.3-1.6c0.1-0.2,0.3-0.3,0.5-0.3h8.3
				c0.2,0,0.4,0.1,0.5,0.3l1.2,1.5c0.2-0.1,0.3-0.3,0.5-0.4l-1.2-1.5c-0.3-0.3-0.6-0.5-1-0.5h-8.3c-0.4,0-0.8,0.2-1,0.5L750,242.2z"
				/>
			<path class="st1" d="M748.9,246.2c-1.2,0-2.1-1-2.1-2.1c0-1.2,1-2.1,2.1-2.1c1.2,0,2.1,1,2.1,2.1S750.1,246.2,748.9,246.2z
				 M748.9,242.6c-0.8,0-1.5,0.7-1.5,1.5s0.7,1.5,1.5,1.5s1.5-0.7,1.5-1.5C750.4,243.2,749.7,242.6,748.9,242.6z"/>
			<path class="st1" d="M763.6,246.2c-1.2,0-2.1-1-2.1-2.1c0-1.2,1-2.1,2.1-2.1c1.2,0,2.1,1,2.1,2.1
				C765.8,245.2,764.8,246.2,763.6,246.2z M763.6,242.6c-0.8,0-1.5,0.7-1.5,1.5s0.7,1.5,1.5,1.5s1.5-0.7,1.5-1.5
				C765.1,243.2,764.5,242.6,763.6,242.6z"/>
		</g>
		<path class="st1" d="M766.2,235.9h-19.7c-0.4,0-0.7-0.3-0.7-0.7v-1c0-0.4,0.3-0.7,0.7-0.7h19.7c0.4,0,0.7,0.3,0.7,0.7v1
			C766.9,235.6,766.6,235.9,766.2,235.9z"/>
		<path class="st1" d="M765.7,227.8c-1.2-0.3-2.5,0.3-2.8,1.4l-1.1,3.6v0.7h3.2l1.4-4.7C766.5,228.4,766.2,227.9,765.7,227.8z"/>
		<path class="st1" d="M749.9,229.2c-0.3-1.1-1.6-1.7-2.8-1.4c-0.5,0.1-0.8,0.6-0.7,1.1l1.4,4.7h3.2v-0.7L749.9,229.2z"/>
		<path class="st1" d="M764.9,233.9h-3.2c-0.2,0-0.3-0.1-0.3-0.3v-0.7v-0.1l1.1-3.6c0.4-1.2,1.8-2,3.2-1.6c0.4,0.1,0.7,0.3,0.8,0.6
			c0.2,0.3,0.2,0.6,0.1,0.9l-1.4,4.7C765.2,233.8,765.1,233.9,764.9,233.9z M762.1,233.2h2.6l1.4-4.5c0-0.1,0-0.3,0-0.3
			c-0.1-0.1-0.2-0.2-0.4-0.3c-1.1-0.2-2.1,0.3-2.4,1.2l-1.1,3.5L762.1,233.2L762.1,233.2z"/>
		<path class="st1" d="M751,233.9h-3.2c-0.1,0-0.3-0.1-0.3-0.2l-1.4-4.7c-0.1-0.3-0.1-0.6,0.1-0.9c0.2-0.3,0.5-0.5,0.8-0.6
			c1.4-0.3,2.8,0.4,3.2,1.6l1.1,3.6v0.1v0.7C751.3,233.8,751.2,233.9,751,233.9z M748.1,233.2h2.6v-0.4l-1.1-3.5
			c-0.3-0.9-1.4-1.4-2.4-1.2c-0.2,0-0.3,0.1-0.4,0.3c0,0.1-0.1,0.2,0,0.3L748.1,233.2z"/>
		<path class="st1" d="M764.7,233.6h-16.6c-0.2,0-0.3-0.1-0.3-0.3v-1.7c0-1.1,0.9-2,2-2H763c1.1,0,2,0.9,2,2v1.7
			C765,233.4,764.8,233.6,764.7,233.6z"/>
		<path class="st1" d="M764.7,233.9h-16.6c-0.4,0-0.7-0.3-0.7-0.7v-1.7c0-1.3,1-2.3,2.3-2.3H763c1.3,0,2.3,1,2.3,2.3v1.7
			C765.3,233.6,765,233.9,764.7,233.9z M749.7,230c-0.9,0-1.6,0.7-1.6,1.6v1.7h16.6v-1.6c0-0.9-0.7-1.6-1.6-1.6L749.7,230L749.7,230
			z"/>
		<path class="st1" d="M745.9,234.2c0-0.3,0.2-0.5,0.4-0.6v-7h-1.6v7.8c0,0.4,0.3,0.7,0.7,0.7h0.6v-0.9H745.9z"/>
		<path class="st1" d="M766.5,226.6v7c0.2,0.1,0.4,0.3,0.4,0.6v0.8h0.6c0.4,0,0.7-0.3,0.7-0.7v-7.8L766.5,226.6L766.5,226.6z"/>
		<path class="st1" d="M766.2,236.2h-19.7c-0.5,0-1-0.4-1-1v-1c0-0.5,0.4-1,1-1h19.7c0.5,0,1,0.4,1,1v1
			C767.2,235.8,766.8,236.2,766.2,236.2z M746.6,233.9c-0.2,0-0.3,0.1-0.3,0.3v1c0,0.2,0.1,0.3,0.3,0.3h19.7c0.2,0,0.3-0.1,0.3-0.3
			v-1c0-0.2-0.1-0.3-0.3-0.3H746.6z"/>
		<path class="st1" d="M745.9,235.4h-0.6c-0.5,0-1-0.4-1-1v-7.8c0-0.2,0.1-0.3,0.3-0.3h1.6c0.2,0,0.3,0.1,0.3,0.3v7
			c0,0.1-0.1,0.2-0.2,0.3c-0.1,0.1-0.2,0.2-0.2,0.3v0.8C746.2,235.2,746.1,235.4,745.9,235.4z M745,226.9v7.5c0,0.2,0.1,0.3,0.3,0.3
			h0.3v-0.5c0-0.3,0.1-0.6,0.4-0.8v-6.5H745z"/>
		<path class="st1" d="M767.4,235.4h-0.6c-0.2,0-0.3-0.1-0.3-0.3v-0.8c0-0.1-0.1-0.3-0.2-0.3c-0.1,0-0.2-0.2-0.2-0.3v-7
			c0-0.2,0.1-0.3,0.3-0.3h1.6c0.2,0,0.3,0.1,0.3,0.3v7.8C768.4,234.9,768,235.4,767.4,235.4z M767.2,234.7h0.2
			c0.2,0,0.3-0.1,0.3-0.3v-7.5h-1v6.5c0.3,0.2,0.4,0.5,0.4,0.8L767.2,234.7L767.2,234.7z"/>
	</g>
</g>
<g>
	<g>
		<path class="st1" d="M806,217.7h2.6v26.9h-5.3l2.7-2.4V217.7z M806,216.8h2.6V205H806V216.8z M818.2,241.1
			c-0.1,0.6-0.1,1.3-0.1,1.9c0,0.5,0.1,1.1,0.4,1.7h-9.1v-26.9l2.3,0.2l15.7,3.2v9.5c-0.1,0-0.1,0.1-0.2,0.2h-1.1
			c-0.2-0.2-0.3-0.3-0.6-0.4c-1.1-0.4-2.3-0.4-3.4,0c-0.2,0.1-0.3,0.2-0.5,0.3c-0.1,0.1-0.2,0.2-0.3,0.3s-0.2,0.2-0.3,0.3
			c-0.2,0.2-0.3,0.5-0.5,0.7l-0.2,0.3c-0.4,0.6-0.6,1.2-0.8,1.7c-0.3,1-0.6,2.1-0.8,3.4C818.6,238.6,818.3,239.8,818.2,241.1z
			 M810.7,238.5L810.7,238.5c0.1,0,0.2,0.1,0.3,0.1h0.1c0.1,0,0.1,0.1,0.1,0.2c0,0.2,0,0.5,0,0.7v0.1c0,0.1,0.1,0.2,0.1,0.2
			c0.1,0,0.1,0.1,0.2,0.1c0.1,0,0.3,0,0.3-0.2c0-0.4,0-0.7,0-1.1l0,0h-0.1l0,0c0,0.2,0,0.4,0,0.6c0,0.1,0,0.3,0,0.4
			c0,0.1,0,0.1-0.1,0.1h-0.1c-0.1,0-0.1-0.1-0.1-0.2c0-0.3,0-0.5,0-0.8c0-0.1-0.1-0.3-0.3-0.3c-0.1,0-0.2-0.1-0.4-0.1l0,0
			C810.7,238.3,810.7,238.4,810.7,238.5z M810.7,240c0,0.1,0,0.1,0.1,0.2c0.1,0.1,0.1,0.1,0.2,0.2c0.2,0,0.3,0.1,0.5,0.1
			c0,0,0,0,0.1,0s0.1,0.1,0.1,0.1s0,0,0,0.1c0,0.2,0,0.3,0,0.5l0,0l0,0h0.1l0,0c0-0.2,0-0.4,0-0.6c0-0.1,0-0.1-0.1-0.2
			c-0.1,0-0.1-0.1-0.2-0.1c-0.2,0-0.3-0.1-0.5-0.1C810.9,240.2,810.8,240.1,810.7,240c0.1-0.2,0.1-0.4,0.1-0.5l0,0l0,0h-0.1l0,0
			C810.7,239.5,810.7,239.7,810.7,240z M811.8,242v-0.1c-0.1-0.1-0.1-0.2-0.2-0.3c-0.2-0.3-0.4-0.7-0.6-1l0,0h-0.1c0,0,0,0,0,0.1
			c0,0.3,0,0.7,0,1l0,0h-0.1c0,0.1,0,0.1,0,0.2h0.1l0,0c0,0.1,0,0.1,0,0.2l0,0h0.1l0,0c0-0.1,0-0.1,0-0.2l0,0
			C811.2,242,811.5,242,811.8,242C811.7,242.1,811.7,242.1,811.8,242C811.8,242.1,811.8,242.1,811.8,242z M810.9,240.8L810.9,240.8
			L810.9,240.8c0,0.3,0,0.6,0,0.9l0,0c0.2,0.1,0.4,0.1,0.6,0.2l0,0C811.4,241.5,811.2,241.1,810.9,240.8z M827.4,220.4v-10.3
			l-15.3-5.1h-2.7v11.8l2.4,0.2L827.4,220.4z M824.3,235.8l-0.5-0.5c0-0.1-0.1-0.1-0.2,0l-0.5,0.5c-0.1,0.1-0.1,0.2-0.1,0.3v1
			c0,0.2,0.1,0.3,0.3,0.3h0.7c0.2,0,0.3-0.1,0.3-0.3v-1C824.4,236,824.4,235.9,824.3,235.8L824.3,235.8L824.3,235.8z M823.5,234.9
			l-0.5-0.5l0,0c-0.1-0.1-0.2-0.1-0.3-0.1h-1c-0.2,0-0.3,0.1-0.3,0.3v0.7c0,0.2,0.1,0.3,0.3,0.3h1c0.1,0,0.2-0.1,0.3-0.1
			L823.5,234.9C823.6,235.1,823.6,235,823.5,234.9z M828.4,234.9h4.9c0.2,0,0.4-0.2,0.4-0.4l0,0V232l0,0c0-0.2-0.2-0.4-0.4-0.4h-4.9
			c-0.2,0-0.4,0.2-0.4,0.4l0,0v2.5l0,0C828,234.7,828.2,234.9,828.4,234.9z M823.7,234.8c0,0.1,0.1,0.1,0.2,0l0.5-0.5l0,0
			c0.1-0.1,0.1-0.2,0.1-0.3v-1c0-0.2-0.1-0.3-0.3-0.3h-0.7c-0.2,0-0.3,0.1-0.3,0.3v1c0,0.1,0.1,0.2,0.1,0.3L823.7,234.8z
			 M839.7,234.2c0.4,0,0.8,0.3,0.8,0.8c0,0.4-0.3,0.8-0.8,0.8c-0.4,0-0.8-0.3-0.8-0.8C839,234.6,839.3,234.2,839.7,234.2z
			 M839.7,234.5c-0.3,0-0.5,0.2-0.5,0.5s0.2,0.5,0.5,0.5s0.5-0.2,0.5-0.5S840,234.5,839.7,234.5z M837.7,233.6h0.7L838,233
			L837.7,233.6z M838.8,233.4c0,0.4-0.3,0.8-0.8,0.8c-0.4,0-0.8-0.3-0.8-0.8c0-0.4,0.3-0.8,0.8-0.8
			C838.4,232.6,838.8,232.9,838.8,233.4z M838.5,233.7l-0.5-0.9l-0.5,0.9H838.5z M839.3,235c0,0.2,0.2,0.4,0.4,0.4s0.4-0.2,0.4-0.4
			s-0.2-0.4-0.4-0.4S839.3,234.8,839.3,235z M838.8,236.6c0,0.4-0.3,0.8-0.8,0.8c-0.4,0-0.8-0.3-0.8-0.8c0-0.4,0.3-0.8,0.8-0.8
			C838.4,235.9,838.8,236.2,838.8,236.6z M838.1,236.6l0.4-0.4l-0.1-0.1L838.1,236.6l-0.4-0.4l-0.1,0.1l0.4,0.4l-0.4,0.4l0.1,0.1
			L838.1,236.6l0.3,0.4l0.1-0.1L838.1,236.6z M842.3,242.6c0,0.7-0.2,1.3-0.9,1.9c-1.3,1-3,0.3-3.3-0.2c-0.4-0.5-0.7-1.4-0.9-2.1
			c-0.2-0.6-0.4-1.2-0.6-1.8c-0.1-0.2-0.2-0.3-0.4-0.3h-0.1c-0.9,0.6-2,0.6-2.8,0c0,0-0.1-0.1-0.2-0.1c-0.3,0-0.9,0-1.5,0l0,0
			c-0.1,0-0.4,0-0.7,0s-0.6,0-0.7,0l0,0c-0.6,0-1.3,0-1.5,0c-0.1,0-0.1,0-0.2,0.1c-0.8,0.7-2,0.7-2.8,0h-0.1
			c-0.2,0.1-0.3,0.1-0.4,0.3c-0.2,0.6-0.4,1.2-0.6,1.8c-0.2,0.7-0.6,1.5-0.9,2.1c-0.4,0.5-2.1,1.2-3.3,0.2c-0.7-0.6-0.9-1.1-0.9-1.9
			c0-0.6,0-1.1,0.1-1.7c0.1-1.1,0.3-2.3,0.6-3.4c0.2-1.1,0.5-2.2,0.8-3.3c0.1-0.5,0.3-1,0.6-1.4c0.2-0.3,0.4-0.7,0.7-1
			c0-0.1,0.1-0.1,0.2-0.1c0.1,0,0.1,0,0.1-0.1c0,0,0-0.1,0.1-0.1c0,0,0.1-0.1,0.2-0.1c0.8-0.3,1.6-0.3,2.4,0c0.1,0,0.1,0.1,0.1,0.1
			c0,0.1,0,0.2,0.1,0.2l0,0c0.2,0.1,0.4,0.1,0.6,0.1h1.8v2.5c0,0.4,0.3,0.7,0.7,0.7h4.9c0.4,0,0.7-0.3,0.7-0.7v-2.5h1.8
			c0.2,0,0.4,0,0.6-0.1l0,0c0.1,0,0.2-0.1,0.1-0.2c0-0.1,0-0.1,0.1-0.1c0.8-0.3,1.6-0.3,2.4,0c0.1,0,0.1,0.1,0.2,0.1l0.1,0.1
			c0,0.1,0,0.1,0.1,0.1s0.1,0.1,0.2,0.1c0.2,0.3,0.4,0.7,0.7,1c0.3,0.4,0.5,0.9,0.6,1.4c0.3,1.1,0.6,2.2,0.8,3.3s0.4,2.2,0.6,3.4
			C842.3,241.5,842.3,242,842.3,242.6z M826.6,233.6c0,0.3,0.2,0.5,0.5,0.5s0.5-0.2,0.5-0.5v-0.9c0-0.3-0.2-0.5-0.5-0.5
			s-0.5,0.2-0.5,0.5C826.6,232.6,826.6,233.6,826.6,233.6z M826.4,235c0-1.4-1.2-2.6-2.6-2.6c-1.4,0-2.6,1.2-2.6,2.6
			s1.2,2.6,2.6,2.6S826.4,236.5,826.4,235z M828.4,238.8c0-0.7-0.6-1.3-1.3-1.3s-1.3,0.6-1.3,1.3s0.6,1.3,1.3,1.3
			C827.8,240.2,828.4,239.6,828.4,238.8z M830.8,238.9C830.8,238.9,830.9,238.9,830.8,238.9c0.2,0,0.2,0,0.3-0.1c0-0.1,0-0.1,0-0.2
			c0-0.1-0.1-0.2-0.2-0.2c-0.4,0-0.7,0-1.1,0l0,0c0,0,0,0,0,0.1l0,0c0.2,0,0.4,0,0.6,0c0.1,0,0.3,0,0.4,0c0.1,0,0.1,0,0.1,0.1v0.1
			C830.9,238.7,830.8,238.8,830.8,238.9c-0.3-0.1-0.6-0.1-0.8-0.1c-0.1,0-0.2,0.1-0.2,0.2c0,0.1,0,0.2,0,0.3l0,0c0.1,0,0.1,0,0.2,0
			l0,0c0-0.1,0-0.1,0-0.2c0,0,0,0,0-0.1s0-0.1,0.1-0.1C830.3,238.9,830.6,238.9,830.8,238.9z M832.3,238.4L832.3,238.4
			c-0.2,0-0.4,0-0.6,0c-0.1,0-0.1,0-0.2,0.1v0.1c0,0.1,0,0.3,0,0.4c0,0.1,0,0.1-0.1,0.1c-0.2,0-0.3,0-0.5,0l0,0l0,0c0,0,0,0,0,0.1
			l0,0c0.2,0,0.4,0,0.6,0c0.1,0,0.1,0,0.2,0c0.1,0,0.1-0.1,0.1-0.2c0-0.1,0-0.3,0-0.4c0,0,0,0,0-0.1s0-0.1,0.1-0.1l0,0
			C832,238.5,832.1,238.5,832.3,238.4C832.3,238.5,832.3,238.5,832.3,238.4C832.3,238.5,832.3,238.5,832.3,238.4L832.3,238.4z
			 M834.3,233.6c0,0.3,0.2,0.5,0.5,0.5s0.5-0.2,0.5-0.5v-0.9c0-0.3-0.2-0.5-0.5-0.5s-0.5,0.2-0.5,0.5V233.6z M836,238.8
			c0-0.7-0.6-1.3-1.3-1.3s-1.3,0.6-1.3,1.3s0.6,1.3,1.3,1.3S836,239.6,836,238.8z M840.6,235c0-1.4-1.2-2.6-2.6-2.6
			s-2.6,1.2-2.6,2.6s1.2,2.6,2.6,2.6S840.6,236.5,840.6,235z M837.1,235c0,0.4-0.3,0.8-0.8,0.8c-0.4,0-0.8-0.3-0.8-0.8
			c0-0.4,0.3-0.8,0.8-0.8S837.1,234.6,837.1,235z M836.8,234.6H836v0.8h0.8V234.6z M825.7,234.3h-1c-0.1,0-0.2,0-0.3,0.1l0,0
			l-0.5,0.5c-0.1,0-0.1,0.1,0,0.2l0.5,0.5c0.1,0.1,0.2,0.1,0.3,0.1h1c0.2,0,0.3-0.1,0.3-0.3v-0.7
			C826.1,234.5,825.9,234.3,825.7,234.3z M836.7,234.7h-0.6v0.6h0.6V234.7z"/>
	</g>
</g>
<g>
	<g>
		<g>
			<g>
				<path class="st1" d="M882.2,213.1h14.9c0.4,0,0.8-0.4,0.8-0.8v-6.6h-16.6v6.6C881.4,212.7,881.7,213.1,882.2,213.1z"/>
				<path class="st1" d="M909,215.8l-8.4-8.5v5c0,1.9-1.6,3.5-3.5,3.5h-14.9c-1.9,0-3.5-1.6-3.5-3.5v-6.6h-5.4c-2,0-3.7,1.6-3.7,3.7
					v32.7c0,2,1.6,3.7,3.7,3.7H906c2,0,3.7-1.6,3.7-3.7v-24.8C909.7,216.7,909.4,216.2,909,215.8z M903.4,237.3c0,1.2-1,2.1-2.1,2.1
					H878c-1.2,0-2.1-1-2.1-2.1v-11.2c0-1.2,1-2.1,2.1-2.1h23.3c1.2,0,2.1,1,2.1,2.1L903.4,237.3L903.4,237.3z"/>
				<path class="st1" d="M898.9,227.4h-18.4c-0.7,0-1.3,0.6-1.3,1.3s0.6,1.3,1.3,1.3h18.4c0.7,0,1.3-0.6,1.3-1.3
					S899.6,227.4,898.9,227.4z"/>
				<path class="st1" d="M896.2,232.8h-13.1c-0.7,0-1.3,0.6-1.3,1.3s0.6,1.3,1.3,1.3h13.1c0.7,0,1.3-0.6,1.3-1.3
					C897.5,233.4,896.9,232.8,896.2,232.8z"/>
			</g>
		</g>
	</g>
</g>
<g>
	<g>
		<g>
			<path class="st1" d="M968.7,215h-5.3c-0.7,0-1.3,0.6-1.3,1.3v5.3c0,0.7,0.6,1.3,1.3,1.3h0.7v0.7c0,0.3-0.2,0.5-0.4,0.6l-6.3,2.7
				v-12h2.7c0.4,0,0.7-0.3,0.7-0.7c0-0.1,0-0.2-0.1-0.3l-4.7-8c-0.2-0.3-0.6-0.4-0.9-0.2c-0.1,0.1-0.2,0.1-0.2,0.2l-4.7,8
				c-0.2,0.3-0.1,0.7,0.2,0.9c0.1,0.1,0.2,0.1,0.3,0.1h2.7v14l-6.3-2.7c-0.2-0.1-0.4-0.3-0.4-0.6v-1.1c1.6-0.8,2.7-2.4,2.7-4.2
				c0-2.6-2.1-4.7-4.7-4.7c-2.6,0-4.7,2.1-4.7,4.7c0,1.8,1,3.4,2.7,4.2v2.5c0,1.1,0.6,2,1.6,2.4l8.7,3.8c0.2,0.1,0.4,0.3,0.4,0.6
				v0.2c-3.1,1.1-4.8,4.5-3.7,7.7c1.1,3.1,4.5,4.8,7.7,3.7c3.1-1.1,4.8-4.5,3.7-7.7c-0.6-1.7-1.9-3.1-3.7-3.7v-2.2
				c0-0.3,0.2-0.5,0.4-0.6l8.7-3.8c1-0.4,1.6-1.4,1.6-2.4v-2h0.7c0.7,0,1.3-0.6,1.3-1.3v-5.3C970,215.6,969.4,215,968.7,215z
				 M968.7,221.7h-1.3c-0.4,0-0.7,0.3-0.7,0.7v2.7c0,0.5-0.3,1-0.8,1.2l-8.7,3.8c-0.7,0.3-1.2,1-1.2,1.8v2.7c0,0.3,0.2,0.6,0.5,0.7
				c2.5,0.6,4,3.2,3.3,5.7c-0.6,2.5-3.2,4-5.7,3.3c-2.5-0.6-4-3.2-3.3-5.7c0.4-1.6,1.7-2.9,3.3-3.3c0.3-0.1,0.5-0.4,0.5-0.7v-0.7
				c0-0.8-0.5-1.5-1.2-1.8l-8.7-3.8c-0.5-0.2-0.8-0.7-0.8-1.2v-2.9c0-0.3-0.2-0.5-0.4-0.6c-1.7-0.6-2.6-2.5-2-4.3s2.5-2.6,4.3-2
				c1.7,0.6,2.6,2.5,2,4.3c-0.3,0.9-1.1,1.7-2,2c-0.3,0.1-0.4,0.3-0.4,0.6v1.6c0,0.8,0.5,1.5,1.2,1.8l7.2,3.2c0.3,0.1,0.7,0,0.9-0.3
				c0-0.1,0.1-0.2,0.1-0.3v-15.7c0-0.4-0.3-0.7-0.7-0.7h-2.2l3.5-6l3.5,6h-2.2c-0.4,0-0.7,0.3-0.7,0.7v13.7c0,0.4,0.3,0.7,0.7,0.7
				c0.1,0,0.2,0,0.3-0.1l7.2-3.2c0.7-0.3,1.2-1,1.2-1.8v-1.3c0-0.4-0.3-0.7-0.7-0.7h-1.3v-5.3h5.3L968.7,221.7L968.7,221.7z"/>
		</g>
	</g>
</g>
<g>
	<path class="st1" d="M751,75.4c0.4,0.3,0.9,0.3,1.3-0.1c2.2-2.6,5.5-4.1,8.9-4.1c3.7,0,7.2,1.7,9.4,4.7c0.2,0.2,0.4,0.4,0.7,0.4
		c0.2,0,0.4-0.1,0.5-0.2c0.4-0.3,0.5-0.9,0.2-1.3c-1.2-1.7-2.8-3-4.7-4s-4-1.5-6.2-1.5c-3.9,0-7.7,1.7-10.2,4.7
		C750.6,74.5,750.7,75,751,75.4z"/>
	<path class="st1" d="M765.7,81.3c0.2,0.2,0.4,0.4,0.7,0.4c0.2,0,0.4-0.1,0.5-0.2c0.4-0.3,0.5-0.9,0.2-1.3c-1.4-1.9-3.6-3-5.9-3
		c-2.2,0-4.2,0.9-5.6,2.6c-0.3,0.4-0.3,0.9,0.1,1.3c0.4,0.3,0.9,0.3,1.3-0.1c1.1-1.2,2.6-2,4.3-2C763,79.1,764.6,79.9,765.7,81.3z"
		/>
	<path class="st1" d="M768.2,78.5c0.2,0.2,0.4,0.4,0.7,0.4c0.2,0,0.4-0.1,0.5-0.2c0.4-0.3,0.5-0.9,0.2-1.3c-2-2.7-5.2-4.3-8.5-4.3
		c-3.1,0-6,1.3-8,3.7c-0.3,0.4-0.3,0.9,0.1,1.3c0.4,0.3,0.9,0.3,1.3-0.1c1.7-1.9,4.1-3.1,6.7-3.1C764,75,766.6,76.3,768.2,78.5z"/>
	<path class="st1" d="M780.4,89.9V77.7c0-1.5-1.2-2.7-2.7-2.7s-2.7,1.2-2.7,2.7v12.2h-27.1V77.7c0-1.5-1.2-2.7-2.7-2.7
		s-2.7,1.2-2.7,2.7V90c-2.2,0.4-3.8,2.3-3.8,4.6v7.1c0,2.5,1.9,4.5,4.3,4.7v2.1c0,0.5,0.4,0.9,0.9,0.9h6.3c0.5,0,0.9-0.4,0.9-0.9
		v-2.1h6.9c0.5,0,0.9-0.4,0.9-0.9s-0.4-0.9-0.9-0.9h-14.6c-1.6,0-2.9-1.3-2.9-2.9v-7.1c0-1.6,1.3-2.9,2.9-2.9h36.4
		c1.6,0,2.9,1.3,2.9,2.9v7.1c0,1.6-1.3,2.9-2.9,2.9h-14.6c-0.5,0-0.9,0.4-0.9,0.9s0.4,0.9,0.9,0.9h7.4v2.1c0,0.5,0.4,0.9,0.9,0.9
		h6.3c0.5,0,0.9-0.4,0.9-0.9v-2.2c2.2-0.4,3.8-2.3,3.8-4.6v-7.1C784.5,92.2,782.7,90.2,780.4,89.9z M749.3,107.6h-4.5v-1.2h4.5
		V107.6z M744.3,89.9V77.7c0-0.5,0.4-0.9,0.9-0.9s0.9,0.4,0.9,0.9v12.2C746.1,89.9,744.3,89.9,744.3,89.9z M776.8,89.9V77.7
		c0-0.5,0.4-0.9,0.9-0.9s0.9,0.4,0.9,0.9v12.2C778.6,89.9,776.8,89.9,776.8,89.9z M774.4,107.6v-1.2h4.5v1.2H774.4z"/>
	<path class="st1" d="M744.5,93.9c-0.5,0-0.9,0.4-0.9,0.9v6c0,0.5,0.4,0.9,0.9,0.9h7.2c0.5,0,0.9-0.4,0.9-0.9v-6
		c0-0.5-0.4-0.9-0.9-0.9H744.5z M750.8,99.9h-5.4v-4.2h5.4V99.9z"/>
	<path class="st1" d="M772.1,95.6h6.8c0.5,0,0.9-0.4,0.9-0.9s-0.4-0.9-0.9-0.9h-6.8c-0.5,0-0.9,0.4-0.9,0.9
		C771.2,95.2,771.6,95.6,772.1,95.6z"/>
	<path class="st1" d="M759.8,93.9h-4c-0.5,0-0.9,0.4-0.9,0.9v6c0,0.5,0.4,0.9,0.9,0.9h4c0.5,0,0.9-0.4,0.9-0.9v-6
		C760.7,94.3,760.3,93.9,759.8,93.9z M756.6,95.6h2.2v1.2h-2.2V95.6z M756.6,99.9v-1.2h2.2v1.2H756.6z"/>
	<path class="st1" d="M772.1,98.6h6.8c0.5,0,0.9-0.4,0.9-0.9s-0.4-0.9-0.9-0.9h-6.8c-0.5,0-0.9,0.4-0.9,0.9
		C771.2,98.2,771.6,98.6,772.1,98.6z"/>
	<path class="st1" d="M772.1,101.6h6.8c0.5,0,0.9-0.4,0.9-0.9s-0.4-0.9-0.9-0.9h-6.8c-0.5,0-0.9,0.4-0.9,0.9
		C771.2,101.2,771.6,101.6,772.1,101.6z"/>
	<path class="st1" d="M768.2,100.8v-6c0-0.5-0.4-0.9-0.9-0.9h-4c-0.5,0-0.9,0.4-0.9,0.9v6c0,0.5,0.4,0.9,0.9,0.9h4
		C767.8,101.6,768.2,101.2,768.2,100.8z M764.2,95.6h2.2v1.2h-2.2V95.6z M764.2,99.9v-1.2h2.2v1.2H764.2z"/>
	<path class="st1" d="M758,84.7c0,1.7,1.4,3.2,3.2,3.2c1.7,0,3.2-1.4,3.2-3.2c0-1.7-1.4-3.2-3.2-3.2S758,82.9,758,84.7z M762.6,84.7
		c0,0.8-0.6,1.4-1.4,1.4c-0.8,0-1.4-0.6-1.4-1.4s0.6-1.4,1.4-1.4C761.9,83.3,762.6,83.9,762.6,84.7z"/>
	<path class="st1" d="M761.6,104.6L761.6,104.6c-0.5,0-0.9,0.4-0.9,0.9s0.4,0.9,0.9,0.9l0,0c0.5,0,0.9-0.4,0.9-0.9
		S762.1,104.6,761.6,104.6z"/>
</g>
<g>
	<g>
		<path class="st2" d="M856.6,21.1c0.8,0.7,0.9,1.9,0.2,2.7c-0.1,0.1-0.1,0.2-0.2,0.2l0,0c-0.8,0.6-0.9,1.7-0.4,2.6
			c0.6,0.9,0.4,2.1-0.5,2.7c-0.1,0.1-0.2,0.1-0.3,0.2c-0.7,0.3-1.2,1-1.2,1.8c0,0.2,0,0.4,0.1,0.6l0,0c0.3,1-0.3,2.1-1.3,2.4
			c-0.1,0-0.2,0.1-0.3,0.1l0,0c-1,0.1-1.7,1-1.7,2l0,0c0,1.1-0.8,2-1.9,2c-0.1,0-0.2,0-0.3,0s-0.2,0-0.3,0c-0.9,0-1.6,0.6-1.9,1.4
			c-0.2,0.8-1,1.4-1.9,1.4c-0.3,0-0.6-0.1-0.8-0.2c-0.3-0.1-0.5-0.2-0.8-0.2c-0.7,0-1.3,0.3-1.6,0.9l0,0c-0.6,0.9-1.8,1.2-2.7,0.6
			c-0.1-0.1-0.2-0.1-0.3-0.2c-0.7-0.7-1.9-0.7-2.6,0c-0.8,0.7-2,0.7-2.7-0.1c-0.1-0.1-0.1-0.2-0.2-0.3l0,0c-0.5-0.8-1.6-1.2-2.5-0.7
			l0,0c-1,0.5-2.1,0.1-2.6-0.9c-0.1-0.1-0.1-0.2-0.1-0.3c-0.2-0.8-1-1.4-1.9-1.4c-0.1,0-0.2,0-0.3,0s-0.2,0-0.3,0
			c-1.1,0-1.9-0.9-1.9-1.9l0,0l0,0c0-1-0.7-1.8-1.7-2l0,0c-1.1-0.1-1.8-1.1-1.7-2.2c0-0.1,0-0.2,0.1-0.3l0,0c0.3-0.9-0.2-2-1.1-2.4
			c-1-0.4-1.4-1.6-1-2.6c0-0.1,0.1-0.2,0.2-0.3c0.6-0.8,0.4-1.9-0.4-2.6l0,0c-0.8-0.7-0.9-1.9-0.2-2.7c0.1-0.1,0.1-0.2,0.2-0.2l0,0
			c0.8-0.6,0.9-1.7,0.4-2.6l0,0c-0.6-0.9-0.4-2.1,0.5-2.7c0.1-0.1,0.2-0.1,0.3-0.2c0.7-0.3,1.2-1,1.2-1.8c0-0.2,0-0.4-0.1-0.6
			c-0.1-0.2-0.1-0.4-0.1-0.6c0-1,0.7-1.8,1.7-1.9c1-0.1,1.7-0.9,1.7-1.9V8.8c0-1.1,0.9-1.9,1.9-1.9c0.1,0,0.2,0,0.3,0s0.2,0,0.3,0
			c0.9,0,1.6-0.6,1.9-1.4c0.2-0.8,1-1.4,1.9-1.4c0.3,0,0.6,0.1,0.8,0.2l0,0c0.9,0.4,2,0.1,2.5-0.7c0.4-0.6,1-0.9,1.7-0.9
			c0.5,0,0.9,0.2,1.3,0.5c0.7,0.7,1.9,0.7,2.6,0c0.4-0.3,0.8-0.5,1.3-0.5c0.7,0,1.3,0.3,1.7,0.9s1,0.9,1.7,0.9
			c0.3,0,0.6-0.1,0.8-0.2l0,0c1-0.5,2.1,0,2.6,0.9c0,0.1,0.1,0.2,0.1,0.3c0.2,0.8,1,1.4,1.9,1.4c0.1,0,0.2,0,0.3,0s0.2,0,0.3,0
			c1.1,0,1.9,0.9,1.9,2l0,0l0,0c0,1,0.7,1.8,1.7,1.9l0,0c1.1,0.1,1.8,1.1,1.7,2.2c0,0.1,0,0.2-0.1,0.3c-0.1,0.2-0.1,0.4-0.1,0.6
			c0,0.8,0.5,1.5,1.2,1.8c1,0.4,1.4,1.6,1,2.6c0,0.1-0.1,0.2-0.2,0.3C855.7,19.4,855.8,20.5,856.6,21.1L856.6,21.1z M852.4,22.7
			c0-8.4-6.8-15.2-15.2-15.2S822,14.3,822,22.7s6.8,15.2,15.2,15.2C845.6,37.9,852.4,31.1,852.4,22.7z"/>
		<path class="st2" d="M835,21.3l0.7,2.1h-2.3l0.7-2c0.2-0.5,0.3-0.9,0.4-1.4c0,0.1,0.1,0.4,0.2,0.7C834.9,20.9,835,21.1,835,21.3z"
			/>
	</g>
	<path class="st3" d="M837.2,7.4c8.4,0,15.2,6.8,15.2,15.2s-6.8,15.2-15.2,15.2S822,31,822,22.6S828.8,7.4,837.2,7.4z"/>
</g>
<g>
	<g>
		<g>
			<g id="Navigation_2_">
				<g>
					<path d="M81.7,74.7h42c1.5,0,2.8-1.3,2.8-2.8s-1.2-2.8-2.8-2.8h-42c-1.5,0-2.8,1.3-2.8,2.8C79,73.4,80.2,74.7,81.7,74.7z
						 M123.7,86.3h-42c-1.5,0-2.8,1.3-2.8,2.8c0,1.6,1.2,2.8,2.8,2.8h42c1.5,0,2.8-1.3,2.8-2.8C126.4,87.5,125.2,86.3,123.7,86.3z
						 M123.7,103.5h-42c-1.5,0-2.8,1.3-2.8,2.8c0,1.6,1.2,2.8,2.8,2.8h42c1.5,0,2.8-1.3,2.8-2.8
						C126.4,104.7,125.2,103.5,123.7,103.5z"/>
				</g>
			</g>
		</g>
	</g>
</g>
<g>
	<path class="st4" d="M909.7,1.5c-11,0-20,9-20,20s9,20,20,20c11,0,20-9,20-20S920.7,1.5,909.7,1.5z M906,31.8l-8.8-8.8l2.9-2.9
		l5.9,5.9l13.2-13.2l2.9,2.9L906,31.8z"/>
	<g>
	</g>
	<g>
	</g>
	<g>
	</g>
	<g>
	</g>
	<g>
	</g>
	<g>
	</g>
	<g>
	</g>
	<g>
	</g>
	<g>
	</g>
	<g>
	</g>
	<g>
	</g>
	<g>
	</g>
	<g>
	</g>
	<g>
	</g>
	<g>
	</g>
</g>
<g>
	<g>
		<g>
			<g>
				<path class="st5" d="M200.9,78.2l-16.6-9.8c-0.1-0.1-0.2-0.1-0.3-0.1l-3.2,0.2l-3.2-0.2c-0.1,0-0.2,0-0.3,0.1l-16.6,9.8
					c-0.2,0.1-0.3,0.3-0.3,0.5c0,0.3,0.2,0.6,0.5,0.6l2.5,0.2l-2.5,7.4c-0.1,0.3,0,0.6,0.2,0.7l2.4,1.4v9.2c0,0.2,0.1,0.4,0.3,0.5
					l16.5,9.6c0,0,0,0,0.1,0c0,0,0,0,0,0c0.1,0,0.1,0,0.2,0s0.1,0,0.2,0c0,0,0,0,0,0c0,0,0,0,0.1,0l16.5-9.6
					c0.2-0.1,0.3-0.3,0.3-0.5l0.1-9.2l2.3-1.4c0.2-0.1,0.4-0.4,0.2-0.7l-2.5-7.4l2.7-0.2c0.3,0,0.6-0.3,0.5-0.6
					C201.2,78.5,201,78.3,200.9,78.2z M181.3,70.2l7.5,4.4l7.4,4.3l-9.8,5.8l-5-2.9V70.2z M162.7,78.3l14.9-8.8l1.2,0.1l-2.5,1.5
					l-4.2,2.5l-8.2,4.8L162.7,78.3z M180.1,70.2v11.6l-5,2.9l-2.4-1.4l-7.5-4.4l7.5-4.4L180.1,70.2z M162,86.9l2.3-7l15.6,9.2
					l-2.3,7l-7.7-4.5l-5.6-3.3L162,86.9z M180,106.8l-15.4-8.9v-8.2l4.7,2.8l8.3,4.9c0.3,0.2,0.6,0.1,0.8-0.2c0,0,0-0.1,0-0.1
					l1.5-4.6V106.8z M180.7,88.1l-4.5-2.7l4.5-2.6l4.5,2.6L180.7,88.1z M196.6,97.9l-15.4,8.9V92.5l1.5,4.6c0,0,0,0.1,0,0.1
					c0.2,0.3,0.5,0.4,0.8,0.2l8.3-4.9l4.8-2.9L196.6,97.9z M199.2,86.9l-2.2,1.3l-5.7,3.4l-7.7,4.5l-2.3-7l8-4.7l7.6-4.4L199.2,86.9
					z M197.5,78.4l-8.2-4.8l-6.7-3.9l1.2-0.1l14.9,8.7L197.5,78.4z"/>
			</g>
		</g>
	</g>
</g>
<g>
	<g>
		<path class="st5" d="M260,93.7c1.7-2.5,2.6-5.6,2.6-8.8c0-8.9-7.2-16.1-16.1-16.1s-16.1,7.2-16.1,16.1c0,3.3,1,6.3,2.6,8.8
			l-6.3,9.2l7.2-1.3l1.3,7.2l5.9-8.7c1.7,0.6,3.4,0.9,5.3,0.9c1.8,0,3.6-0.3,5.3-0.9l5.9,8.7l1.3-7.2l7.2,1.3L260,93.7z
			 M236.6,102.8l-0.7-3.9l-3.9,0.7l2.7-3.9c1.3,1.4,2.8,2.6,4.5,3.5L236.6,102.8z M232.8,84.9c0-7.6,6.2-13.8,13.8-13.8
			c7.6,0,13.8,6.2,13.8,13.8c0,7.6-6.2,13.8-13.8,13.8C239,98.7,232.8,92.5,232.8,84.9z M257.2,98.8l-0.7,3.9l-2.5-3.6
			c1.7-0.9,3.2-2.1,4.5-3.5l2.7,3.9L257.2,98.8z"/>
		<path class="st5" d="M243.7,88.4l-3.8-3.8l-1.7,1.7l5.5,5.5l11.2-11.2l-1.7-1.7L243.7,88.4z"/>
	</g>
</g>
</svg>
